<?xml version="1.0" encoding="UTF-8"?>
<svg id="Layer_1" data-name="Layer 1" xmlns="http://www.w3.org/2000/svg" viewBox="0 0 420 420">
  <defs>
    <style>
      .cls-1 {
        fill: #fafafa;
        stroke-width: 0px;
      }
      .dark .cls-1 {
        fill: #fafafa;
      }
    </style>
  </defs>
  <path class="cls-1" d="M324.32,293.92h-42.42c-3.03,0-5.48,2.45-5.48,5.48v41.17c0,3.03-2.45,5.48-5.48,5.48h-28.62c-3.03,0-5.48-2.45-5.48-5.48v-41.17c0-3.03-2.45-5.48-5.48-5.48h-42.5c-3.03,0-5.48,2.45-5.48,5.48v40.67c0,3.03-2.45,5.48-5.48,5.48h-28.61c-3.03,0-5.48-2.45-5.48-5.48v-40.67c0-3.03-2.45-5.48-5.48-5.48h-43.01c-3.03,0-5.48,2.45-5.48,5.48v94.1c0,3.03,2.45,5.48,5.48,5.48h229.01c3.03,0,5.48-2.45,5.48-5.48v-94.1c0-3.03-2.45-5.48-5.48-5.48Z"/>
  <path class="cls-1" d="M324.64,220.56h-42.47s0,0-.01,0h0c-3.02,0-5.47,2.45-5.47,5.47h0v42.48h0c0,3.03,2.45,5.48,5.47,5.48h42.49c3.02,0,5.47-2.45,5.47-5.47h0v-42.48h0c0-3.03-2.45-5.48-5.47-5.48h0s0,0-.01,0Z"/>
  <path class="cls-1" d="M95.31,273.99h155.97c3.03,0,5.48-2.45,5.48-5.48v-42.47c0-3.03-2.45-5.48-5.48-5.48h-102.68c-3.03,0-5.48-2.45-5.48-5.48V27.75c0-3.03-2.45-5.48-5.48-5.48h-42.33c-3.03,0-5.48,2.45-5.48,5.48v240.75c0,3.03,2.45,5.48,5.48,5.48Z"/>
  <path class="cls-1" d="M324.97,114.83h-82.56c-2.89,0-5.23-2.34-5.23-5.23v-29.43c0-2.89,2.34-5.23,5.23-5.23h81.08c2.87,0,5.2-2.33,5.2-5.2V26.21c0-2.87-2.33-5.2-5.2-5.2h-134.56c-3.13,0-5.67,2.54-5.67,5.67v168.68c0,2.87,2.33,5.2,5.2,5.2h43.53c2.87,0,5.2-2.33,5.2-5.2v-22.39c0-2.87,2.33-5.2,5.2-5.2h82.6c2.87,0,5.2-2.33,5.2-5.2v-42.54c0-2.87-2.33-5.2-5.2-5.2Z"/>
</svg>