<svg width="100" height="100" viewBox="0 0 100 100" fill="none" xmlns="http://www.w3.org/2000/svg">
<path d="M48.3431 71.5239C49.3198 71.5239 50.1638 72.38 50.1638 73.3446C50.1638 74.3092 49.3077 75.1653 48.3431 75.1653C47.3785 75.1653 46.5225 74.3092 46.5225 73.3446C46.5225 72.38 47.3785 71.5239 48.3431 71.5239Z" fill="white"/>
<path d="M75.2315 30.6248V40.2466H65.6216L59.412 45.2384L60.9916 40.2466H57.7119V30.6248H62.8243H65.6216H75.2315Z" fill="white"/>
<path d="M65.6216 40.2467V72.9828C65.6216 75.539 63.5477 77.6129 60.8709 77.6129H35.8034C33.2472 77.6129 31.0527 75.539 31.0527 72.9828V22.2328C31.0527 19.6766 33.1266 17.4822 35.8034 17.4822H60.8709C63.4271 17.4822 65.6216 19.5561 65.6216 22.2328V30.6248H62.8242V26.1274H33.9827V69.2088H62.8242V42.5618L59.2914 45.3591L65.6216 40.2467ZM50.2844 73.3445C50.2844 72.3679 49.4284 71.5239 48.4638 71.5239C47.4992 71.5239 46.6431 72.3799 46.6431 73.3445C46.6431 74.3091 47.4992 75.1652 48.4638 75.1652C49.4284 75.1652 50.2844 74.3091 50.2844 73.3445Z" fill="white"/>
<path d="M62.8239 42.5618V69.2088H33.9824V26.0068H62.8239V30.5043H57.7116V40.1141H61.0033L59.4237 45.2265L62.836 42.5497L62.8239 42.5618ZM59.4117 59.8402C59.4117 51.4481 60.2678 53.3894 52.8403 49.1331L51.6225 48.0359L48.4635 52.4127L45.3044 48.0359L44.0866 49.1331C36.6592 53.3894 37.5153 51.3276 37.5153 59.8402C44.7015 61.5403 52.1169 61.5403 59.4237 59.8402H59.4117ZM48.4635 47.4209C51.9963 47.4209 53.9376 42.3086 53.9376 39.5112C53.9376 36.4727 51.502 34.0371 48.4635 34.0371C45.425 34.0371 42.9894 36.4727 42.9894 39.5112C43.1099 42.4291 45.0633 47.4209 48.4635 47.4209Z" fill="#BB99ED"/>
<path d="M52.8403 49.2537C60.2677 53.51 59.4116 51.5687 59.4116 59.9607C52.1048 61.6608 44.81 61.6608 37.3826 59.9607C37.3826 51.5687 36.5265 53.51 43.9539 49.2537L46.6307 54.2455L48.3308 52.5454L49.9103 54.0043L52.8282 49.2537H52.8403Z" fill="white"/>
<path d="M52.8402 49.2537L49.9223 53.8717L48.3428 52.4128L51.6224 48.0359L52.8402 49.2537Z" fill="white"/>
<path d="M53.9384 39.5112C53.9384 42.3085 51.9972 47.4209 48.4643 47.4209C44.9315 47.4209 42.9902 42.3085 42.9902 39.5112C42.9902 36.4727 45.4258 34.0371 48.4643 34.0371C51.5028 34.0371 53.9384 36.4727 53.9384 39.5112Z" fill="white"/>
<path d="M45.1719 48.0359L48.343 52.4128L46.6309 54.1249L43.9541 49.2537L45.1719 48.0359Z" fill="white"/>
<path d="M60.9923 78.2159H35.8042C32.8863 78.2159 30.5713 75.9009 30.5713 72.9829V22.233C30.5713 19.315 32.8863 17 35.8042 17H60.8718C63.7897 17 66.1047 19.315 66.1047 22.233V30.625C66.1047 30.8661 65.8636 31.1073 65.6224 31.1073C65.3813 31.1073 65.1401 30.8661 65.1401 30.625V22.233C65.1401 19.9179 63.3194 18.0972 61.0044 18.0972H35.8042C33.4892 18.0972 31.6685 19.9179 31.6685 22.233V72.9829C31.6685 75.298 33.4892 77.1187 35.8042 77.1187H60.8718C63.1868 77.1187 65.0075 75.298 65.0075 72.9829V41.3441L59.654 45.6004C59.4128 45.8415 59.0511 45.721 58.9185 45.4798C58.6773 45.2387 58.7979 44.8769 59.039 44.7443L65.2486 39.7525C65.3692 39.6319 65.6104 39.6319 65.8515 39.6319C66.0927 39.7525 66.2132 39.8731 66.2132 40.1142V72.8503C66.2132 75.8888 63.7776 78.2038 60.9803 78.2038L60.9923 78.2159Z" fill="#8364B1"/>
<path d="M62.8248 69.6913H33.9833C33.7421 69.6913 33.501 69.4501 33.501 69.209V26.007C33.501 25.7658 33.7421 25.5247 33.9833 25.5247H62.8248C63.0659 25.5247 63.3071 25.7658 63.3071 26.007V30.5044C63.3071 30.7456 63.0659 30.9867 62.8248 30.9867C62.5836 30.9867 62.3425 30.7456 62.3425 30.5044V26.6098H34.4656V68.594H62.2099V43.6471L59.6537 45.721C59.4125 45.9621 59.0508 45.8415 58.9182 45.6004C58.677 45.3592 58.7976 44.9975 59.0387 44.8649L62.5716 42.0675C62.6922 41.947 62.9333 41.947 63.1745 41.947C63.4156 42.0675 63.5362 42.1881 63.5362 42.4293V69.0763C63.4156 69.438 63.1745 69.6792 62.8007 69.6792L62.8248 69.6913Z" fill="#8364B1"/>
<path d="M48.826 22.4741H44.6903C44.4492 22.4741 44.208 22.233 44.208 21.9918C44.208 21.7507 44.4492 21.5095 44.6903 21.5095H48.826C49.0672 21.5095 49.3083 21.7507 49.3083 21.9918C49.3083 22.233 49.1878 22.4741 48.826 22.4741Z" fill="#8364B1"/>
<path d="M51.9979 22.4741H50.5389C50.2978 22.4741 50.0566 22.233 50.0566 21.9918C50.0566 21.7507 50.2978 21.5095 50.5389 21.5095H51.9979C52.239 21.5095 52.4802 21.7507 52.4802 21.9918C52.4802 22.233 52.3596 22.4741 51.9979 22.4741Z" fill="#8364B1"/>
<path d="M48.3434 75.6598C47.005 75.6598 46.0283 74.5626 46.0283 73.2242C46.0283 71.8858 47.1256 70.7886 48.3434 70.7886C49.6817 70.7886 50.779 71.8858 50.779 73.2242C50.779 74.6831 49.6817 75.6598 48.3434 75.6598ZM48.3434 72.0064C47.6079 72.0064 47.005 72.6093 47.005 73.3448C47.005 74.0803 47.6079 74.6831 48.3434 74.6831C49.0789 74.6831 49.6817 74.0803 49.6817 73.3448C49.6817 72.6093 49.0789 72.0064 48.3434 72.0064Z" fill="#8364B1"/>
<path d="M52.8422 56.5486H50.286C50.0449 56.5486 49.8037 56.3074 49.8037 56.0663C49.8037 55.8251 50.0449 55.584 50.286 55.584H52.8422C53.0833 55.584 53.3245 55.8251 53.3245 56.0663C53.3245 56.3074 53.2039 56.5486 52.8422 56.5486Z" fill="#8364B1"/>
<path d="M52.8422 58.1401H50.286C50.0449 58.1401 49.8037 57.899 49.8037 57.6578C49.8037 57.4167 50.0449 57.1755 50.286 57.1755H52.8422C53.0833 57.1755 53.3245 57.4167 53.3245 57.6578C53.3245 57.899 53.2039 58.1401 52.8422 58.1401Z" fill="#8364B1"/>
<path d="M48.3446 61.6609C44.5706 61.6609 40.9172 61.2992 37.2638 60.4431C37.0226 60.4431 36.902 60.202 36.902 59.9608V57.5252C36.7815 52.654 36.902 52.4128 40.7966 50.3389C41.5321 49.9772 42.4967 49.3623 43.7145 48.7594C43.9557 48.6388 44.3174 48.7594 44.45 49.0006C44.5706 49.2417 44.45 49.6034 44.2089 49.7361C42.9911 50.3389 42.0144 50.9539 41.291 51.3156C39.5909 52.1717 38.6142 52.654 38.2525 53.3895C37.8908 54.125 37.8908 55.2102 37.8908 57.4046V59.3459C44.7032 60.9254 51.7689 60.8048 58.8226 59.3459V57.4046C58.8226 55.0896 58.8226 53.9924 58.4608 53.2689C58.0991 52.5334 57.1225 52.0511 55.4223 51.0744C54.6868 50.7127 53.7222 50.0978 52.625 49.4949C52.3839 49.3743 52.2633 49.0126 52.3839 48.7594C52.5044 48.5183 52.8662 48.3977 53.1194 48.5182C54.2166 49.1211 55.1933 49.6155 55.9167 50.0978C59.8113 52.1717 59.9319 52.4128 59.9319 57.4046V59.7197C59.9319 59.9608 59.8113 60.202 59.4496 60.202C55.7961 61.1786 52.0221 61.6609 48.3687 61.6609H48.3446Z" fill="#8364B1"/>
<path d="M48.4646 48.036C44.57 48.036 42.4961 42.5619 42.4961 39.644C42.4961 36.3523 45.1729 33.6755 48.4646 33.6755C51.7563 33.6755 54.433 36.3523 54.433 39.644C54.5536 42.4413 52.4797 48.036 48.4646 48.036ZM48.4646 34.6522C45.7878 34.6522 43.5933 36.8467 43.5933 39.5234C43.5933 42.2002 45.2934 46.8303 48.4646 46.8303C51.6357 46.8303 53.3358 41.959 53.3358 39.5234C53.4564 36.8467 51.2619 34.6522 48.4646 34.6522Z" fill="#8364B1"/>
<path d="M49.9242 54.4868C49.8037 54.4868 49.6831 54.4868 49.5625 54.3662L47.983 52.9072C47.7418 52.6661 47.7418 52.4249 47.8624 52.1717L51.0215 47.7949C51.142 47.6743 51.2626 47.5537 51.3832 47.5537C51.5038 47.5537 51.7449 47.5537 51.7449 47.6743L52.9627 48.7715C53.2039 48.8921 53.2039 49.2538 53.0833 49.507L50.1654 54.2577C50.4065 54.3783 50.1654 54.4988 49.9242 54.4988C50.0046 54.4988 50.0046 54.4988 49.9242 54.4988V54.4868ZM49.0682 52.4129L49.8037 53.1484L52.1187 49.3744L51.757 48.8921L49.0802 52.4249L49.0682 52.4129Z" fill="#8364B1"/>
<path d="M46.6318 54.7277C46.3907 54.7277 46.2701 54.6071 46.1495 54.4866L43.4728 49.4948C43.3522 49.2536 43.3522 49.0125 43.5933 48.8919L44.8111 47.7946C44.9317 47.6741 45.0523 47.6741 45.1729 47.6741C45.2934 47.6741 45.414 47.7946 45.5346 47.9152L48.6936 52.2921C48.8142 52.5332 48.8142 52.7744 48.6936 53.0276L46.9935 54.6071C46.9935 54.6071 46.7524 54.7277 46.6318 54.7277ZM44.6906 49.2536L46.885 53.1482L47.7411 52.2921L45.1849 48.7592L44.7026 49.2415L44.6906 49.2536Z" fill="#8364B1"/>
<path d="M47.1269 40.3676H46.8857C45.9091 40.247 45.065 39.391 44.6913 38.1732C44.5707 37.932 44.8118 37.5703 45.053 37.4377C45.2941 37.3171 45.6559 37.5582 45.7885 37.7994C46.0296 38.6555 46.524 39.1378 47.0063 39.2583C47.4886 39.3789 47.9829 39.1378 48.2241 38.6555C49.0802 37.3171 49.3213 36.9553 49.9242 37.0759C50.4065 37.1965 50.2859 37.6788 50.2859 38.0526C50.8888 37.6909 51.5037 37.6909 51.8655 37.8114C52.1066 37.932 52.4683 38.1732 52.601 38.9087C52.601 39.1498 52.4804 39.5115 52.1187 39.5115C51.8775 39.5115 51.5158 39.391 51.5158 39.0292C51.5158 38.9087 51.3952 38.7881 51.3952 38.7881C51.2746 38.7881 51.0335 38.7881 50.4186 39.1498C50.0568 39.391 49.6831 39.391 49.4419 39.2704C49.3213 39.1498 49.2008 39.1498 49.2008 39.0292L49.0802 39.1498C48.7185 40.0059 47.8624 40.3676 47.1389 40.3676H47.1269Z" fill="#8364B1"/>
<path d="M59.4124 45.8415C59.2918 45.8415 59.1712 45.8415 59.0506 45.7209C58.8095 45.6003 58.8095 45.3592 58.8095 45.118L60.1479 40.7412H57.5917C57.3505 40.7412 57.1094 40.5 57.1094 40.2589V30.649C57.1094 30.4079 57.3505 30.1667 57.5917 30.1667H75.1112C75.3524 30.1667 75.5935 30.4079 75.5935 30.649V40.2589C75.5935 40.5 75.3524 40.7412 75.1112 40.7412H65.7425L59.5329 45.733C59.6535 45.8535 59.5329 45.8535 59.4124 45.8535V45.8415ZM58.3151 39.6319H60.9919C61.1125 39.6319 61.3536 39.7525 61.4742 39.873C61.5948 39.9936 61.5948 40.2348 61.5948 40.3553L60.4975 43.635L65.3688 39.7404C65.4893 39.6198 65.6099 39.6198 65.7305 39.6198H74.7374V31.0952H58.3031V39.6198L58.3151 39.6319Z" fill="#8364B1"/>
<path d="M70 33.4346H60.993C60.7519 33.4346 60.5107 33.1934 60.5107 32.9523C60.5107 32.7111 60.7519 32.47 60.993 32.47H70C70.2411 32.47 70.4823 32.7111 70.4823 32.9523C70.4823 33.1934 70.3617 33.4346 70 33.4346Z" fill="#8364B1"/>
<path d="M72.315 35.4963H60.993C60.7519 35.4963 60.5107 35.2552 60.5107 35.014C60.5107 34.7729 60.7519 34.5317 60.993 34.5317H72.315C72.5562 34.5317 72.7973 34.7729 72.7973 35.014C72.7973 35.2552 72.6768 35.4963 72.315 35.4963Z" fill="#8364B1"/>
<path d="M72.315 37.4495H60.993C60.7519 37.4495 60.5107 37.2083 60.5107 36.9672C60.5107 36.726 60.7519 36.4849 60.993 36.4849H72.315C72.5562 36.4849 72.7973 36.726 72.7973 36.9672C72.7973 37.2083 72.6768 37.4495 72.315 37.4495Z" fill="#8364B1"/>
<path d="M55.6392 81.375H30.6923C30.4511 81.375 30.21 81.1339 30.21 80.8927C30.21 80.6516 30.4511 80.4104 30.6923 80.4104H55.6392C55.8804 80.4104 56.1215 80.6516 56.1215 80.8927C56.1215 81.1339 55.8804 81.375 55.6392 81.375Z" fill="#8364B1"/>
<path d="M59.0513 83.6899H40.9169C40.6757 83.6899 40.4346 83.4488 40.4346 83.2076C40.4346 82.9665 40.6757 82.7253 40.9169 82.7253H59.0513C59.2925 82.7253 59.5336 82.9665 59.5336 83.2076C59.5336 83.4488 59.2925 83.6899 59.0513 83.6899Z" fill="#8364B1"/>
<path d="M63.186 83.6899H60.871C60.6298 83.6899 60.3887 83.4488 60.3887 83.2076C60.3887 82.9665 60.6298 82.7253 60.871 82.7253H63.186C63.4272 82.7253 63.6683 82.9665 63.6683 83.2076C63.6683 83.4488 63.4272 83.6899 63.186 83.6899Z" fill="#8364B1"/>
<path d="M33.1275 83.5693H24.4823C24.2411 83.5693 24 83.3282 24 83.087C24 82.8459 24.2411 82.6047 24.4823 82.6047H33.1275C33.3687 82.6047 33.6098 82.8459 33.6098 83.087C33.6098 83.3282 33.4892 83.5693 33.1275 83.5693Z" fill="#8364B1"/>
</svg>
