<svg width="100" height="100" viewBox="0 0 100 100" fill="none" xmlns="http://www.w3.org/2000/svg">
<path d="M21.192 39.5555C20.977 39.5555 20.8695 39.448 20.762 39.3405L20.6545 39.1255C20.547 38.9104 20.6545 38.5879 20.8695 38.4697C21.0845 38.3622 21.407 38.4697 21.5253 38.6847L21.6328 38.8997C21.7403 39.1147 21.6328 39.4372 21.4178 39.5555H21.2028H21.192Z" fill="#8364B1"/>
<path d="M20.9783 39.3405C20.7633 39.3405 20.6558 39.233 20.5483 39.018C20.4408 38.9105 20.4408 38.6955 20.3333 38.588V38.3729H20.3225V38.2654C20.215 38.0504 20.43 37.7279 20.6451 37.6096C20.8601 37.5021 21.1826 37.7172 21.3008 37.9322V38.0397V38.2547C21.3008 38.3622 21.4084 38.4697 21.4084 38.5772C21.5159 38.7922 21.4084 39.1147 21.1933 39.233C21.1933 39.233 21.0858 39.3405 20.9783 39.3405Z" fill="#8364B1"/>
<path d="M20.6556 38.0397C20.4406 38.0397 20.2256 37.9322 20.2256 37.6097V37.3947C20.2256 37.1797 20.3331 36.8572 20.6556 36.8572C20.8706 36.8572 21.1931 36.9647 21.1931 37.2872V37.3947C21.1931 37.7172 20.9781 37.9322 20.6556 38.0505V38.0397Z" fill="#8364B1"/>
<path d="M20.5365 37.4916C20.3215 37.4916 20.1064 37.2766 20.1064 37.0615V36.954C20.1064 36.739 20.3215 36.4165 20.5365 36.4165C20.7515 36.4165 21.074 36.6315 21.074 36.8465V36.954C20.9665 37.169 20.859 37.3841 20.5365 37.4916Z" fill="#8364B1"/>
<path d="M20.5365 37.2762C20.3215 37.2762 20.1064 37.0612 20.1064 36.8462V36.7387C20.1064 36.5237 20.3215 36.2012 20.5365 36.2012C20.7515 36.2012 21.074 36.4162 21.074 36.6312V36.7387C20.9665 37.0612 20.7515 37.2762 20.5365 37.2762Z" fill="#8364B1"/>
<path d="M70.7863 59.8418C71.5496 59.8418 72.1946 60.4976 72.1946 61.2501C72.1946 62.0027 71.5388 62.6585 70.7863 62.6585C70.0337 62.6585 69.3779 62.0027 69.3779 61.2501C69.4854 60.4868 70.0337 59.8418 70.7863 59.8418Z" fill="white"/>
<path d="M79.0318 58.1108V64.5182H70.3453C69.4745 64.5182 68.722 64.1957 68.0662 63.5399C67.4104 62.8841 67.0879 62.1316 67.0879 61.2608C67.0879 59.5299 68.4962 58.1108 70.2378 58.1108H79.0318ZM72.1944 61.2608C72.1944 60.4975 71.5386 59.8524 70.7861 59.8524C70.0336 59.8524 69.3778 60.5082 69.3778 61.2608C69.3778 62.0133 70.0336 62.6691 70.7861 62.6691C71.5386 62.6691 72.1944 62.0133 72.1944 61.2608Z" fill="white"/>
<path d="M59.0678 24.5799L61.2287 26.644L45.5006 42.3722H41.0498L58.9603 24.4724L59.0678 24.5799Z" fill="white"/>
<path d="M57.0034 22.5157L58.96 24.4723L41.0603 42.3721H39.5444L38.3511 41.1788C38.2794 41.1071 38.2436 41.0354 38.2436 40.9638L38.1361 40.8563C38.1361 40.7487 38.0286 40.6412 38.0286 40.5337V40.4262C37.9211 39.8887 38.0286 39.3404 38.3511 38.9104L38.4586 38.8029L54.8318 22.4082C55.3693 21.8707 56.3476 21.8707 57.0034 22.5157Z" fill="white"/>
<path d="M38.341 41.1788L39.5343 42.3721H35.6319L33.8903 40.6412C33.2345 39.9854 33.2345 39.0179 33.8903 38.3621L38.126 34.1264L41.921 30.3314L50.2742 21.9782C50.93 21.3224 51.8976 21.3224 52.5533 21.9782L53.9617 23.3865L38.341 38.8996L38.2335 39.0071C37.8035 39.4372 37.696 40.0929 37.911 40.523V40.6305C37.911 40.738 38.0185 40.8455 38.0185 40.953L38.126 41.0605C38.2335 41.0605 38.341 41.168 38.341 41.168V41.1788Z" fill="white"/>
<path d="M68.5073 34.1264C68.8298 34.7822 68.7223 35.5347 68.1848 36.083L61.8956 42.3721H45.5117L61.1324 26.7515L64.7123 30.3314L68.0773 33.6964C68.2923 33.8039 68.3998 33.9114 68.5073 34.1264Z" fill="white"/>
<path d="M74.5819 30.3315V34.1265H68.5078C68.4003 34.019 68.2928 33.804 68.1853 33.6965L64.8203 30.3315H74.5819Z" fill="#BB99ED"/>
<path d="M74.5821 34.0188V42.2645H61.9932L68.2823 35.9754C68.8198 35.4379 68.9381 34.6746 68.6048 34.0188H74.5714H74.5821Z" fill="#BB99ED"/>
<path d="M38.1261 34.0188L33.8903 38.2546C33.2345 38.9104 33.2345 39.8779 33.8903 40.5337L35.6319 42.2753H26.5154C25.3221 42.2753 24.1288 41.8453 23.1505 41.1895C22.6129 40.867 22.1722 40.4262 21.7421 39.8887C21.5271 39.6736 21.4196 39.4586 21.3121 39.1254C21.3121 39.0179 21.2046 38.9104 21.2046 38.9104C21.2046 38.9104 21.2046 38.8028 21.0971 38.8028C21.0971 38.8028 21.0971 38.6953 20.9896 38.6953C20.8821 38.5878 20.8821 38.4803 20.7746 38.2653V37.9428C20.7746 37.8353 20.6671 37.6203 20.6671 37.5128V37.4053C20.6671 37.2978 20.6671 37.0827 20.5596 36.9752V36.3195C20.5596 33.062 23.2687 30.2454 26.5262 30.2454H41.8243L38.1368 34.0403L38.1261 34.0188Z" fill="#BB99ED"/>
<path d="M77.5053 72.8716H25.8594V77.8599H77.5053V72.8716Z" fill="#BB99ED"/>
<path d="M25.8597 72.8717V77.86H25.6447C22.828 77.86 20.4414 75.4733 20.4414 72.6567V36.2981V36.9539C20.4414 37.0614 20.4414 37.2764 20.5489 37.3839V37.4914C20.5489 37.5989 20.6564 37.8139 20.6564 37.9214V38.244C20.6564 38.3515 20.7639 38.5665 20.8714 38.674C20.8714 38.674 20.8714 38.7815 20.9789 38.7815C20.9789 38.7815 20.9789 38.889 21.0864 38.889C21.0864 38.9965 21.1939 39.104 21.1939 39.104C21.3015 39.319 21.5165 39.6415 21.624 39.8673C22.054 40.4048 22.4948 40.8456 23.0323 41.1681C24.0106 41.8239 25.2039 42.2539 26.3972 42.2539H77.3981V57.9928H70.1307C68.3999 57.9928 66.9808 59.4012 66.9808 61.1428C66.9808 62.0136 67.3033 62.7661 67.9591 63.4219C68.6149 64.0777 69.3674 64.4002 70.2382 64.4002H77.5056V72.8609H25.8597V72.8717Z" fill="#BB99ED"/>
<path d="M64.7008 42.8129H61.8841C61.6691 42.8129 61.4541 42.5979 61.4541 42.3829C61.4541 42.1679 61.6691 41.9529 61.8841 41.9529H64.7008C64.9158 41.9529 65.1308 42.1679 65.1308 42.3829C65.1308 42.5979 65.0233 42.8129 64.7008 42.8129Z" fill="#8364B1"/>
<path d="M35.6208 42.813H26.5151C25.2143 42.813 23.9134 42.3829 22.8276 41.7272C22.2901 41.4046 21.7418 40.8564 21.3118 40.3188C21.0968 40.1038 20.9893 39.7813 20.7743 39.5555C20.6668 39.3405 20.6668 39.018 20.9893 38.8997C21.2043 38.7922 21.5268 38.7922 21.6451 39.1148C21.7526 39.3298 21.9676 39.5448 22.0751 39.7705C22.3976 40.2006 22.8384 40.6413 23.3759 40.9639C24.2467 41.6197 25.3325 41.9422 26.5258 41.9422H35.6424C35.8574 41.9422 36.0724 42.1572 36.0724 42.3722C36.0724 42.5872 35.8574 42.8022 35.6424 42.8022L35.6208 42.813Z" fill="#8364B1"/>
<path d="M77.5158 78.2901H25.7516C22.6016 78.2901 20 75.6884 20 72.5385V36.2982C20 36.0832 20.215 35.8682 20.43 35.8682C20.645 35.8682 20.9676 36.0832 20.9676 36.2982V36.5132V72.646C20.9676 75.2476 23.1392 77.4193 25.7408 77.4193H77.0642V64.4003C77.0642 64.1853 77.2792 63.9703 77.4943 63.9703C77.7093 63.9703 77.9243 64.1853 77.9243 64.4003V77.7525C78.0318 78.0751 77.8168 78.2901 77.4943 78.2901H77.5158Z" fill="#8364B1"/>
<path d="M77.5153 58.5411C77.3003 58.5411 77.0853 58.3261 77.0853 58.111V42.8129H74.5912C74.3761 42.8129 74.1611 42.5979 74.1611 42.3829C74.1611 42.1679 74.3761 41.9529 74.5912 41.9529H77.6336C77.8486 41.9529 78.0636 42.1679 78.0636 42.3829V58.1218C78.0636 58.3368 77.8486 58.5518 77.5261 58.5518L77.5153 58.5411Z" fill="#8364B1"/>
<path d="M74.5812 42.8131H64.8197C64.6047 42.8131 64.3896 42.5981 64.3896 42.3831C64.3896 42.168 64.6047 41.953 64.8197 41.953H74.1512V30.7724H64.9272C64.7122 30.7724 64.4972 30.5574 64.4972 30.3424C64.4972 30.1274 64.7122 29.9124 64.9272 29.9124H74.6887C74.9037 29.9124 75.1188 30.1274 75.1188 30.3424V42.3831C75.0113 42.5981 74.7962 42.8131 74.5812 42.8131Z" fill="#8364B1"/>
<path d="M23.1499 41.8346C23.0424 41.8346 22.9349 41.8346 22.8274 41.7271C22.2899 41.2971 21.7416 40.8563 21.3116 40.3188C21.0965 40.1038 20.989 39.7812 20.774 39.5555C20.774 39.448 20.6665 39.3405 20.6665 39.233C20.6665 39.233 20.6665 39.1255 20.559 39.1255V39.018C20.4515 38.9104 20.4515 38.6954 20.344 38.5879C20.344 38.5879 20.344 38.4804 20.2365 38.4804V38.2654C20.2365 38.1579 20.129 37.9429 20.129 37.8354V37.7279C20.129 37.6204 20.129 37.4054 20.0215 37.2979V36.6421C20.0215 33.0621 22.9564 30.1272 26.5364 30.1272H41.8345C42.0495 30.1272 42.2645 30.3422 42.2645 30.5572C42.2645 30.7722 42.0495 30.9872 41.8345 30.9872H26.5149C23.4724 30.9872 20.9783 33.4814 20.9783 36.5238V37.1796C20.9783 37.2871 20.9783 37.3946 21.0858 37.6096V37.7171C21.0858 37.8246 21.1933 37.9321 21.1933 38.1472V38.4697C21.1933 38.5772 21.3008 38.6847 21.3008 38.7922V38.8997V39.0072C21.3008 39.1147 21.4083 39.2222 21.4083 39.2222C21.5158 39.4372 21.7308 39.6522 21.8383 39.878C22.1609 40.308 22.6016 40.6413 22.9241 40.9638C22.9241 40.9638 23.0317 40.9638 23.0317 41.0713L23.1392 41.1788C23.3542 41.3938 23.3542 41.6088 23.2467 41.8346C23.4617 41.7271 23.3542 41.8346 23.1392 41.8346H23.1499Z" fill="#8364B1"/>
<path d="M79.0322 64.9484H70.3457C69.3674 64.9484 68.4966 64.5184 67.744 63.8626C67.0882 63.2068 66.6582 62.2393 66.6582 61.2609C66.6582 59.1968 68.2815 57.5735 70.3457 57.5735H79.0322C79.2472 57.5735 79.4622 57.7885 79.4622 58.0035V64.4109C79.4622 64.7334 79.2472 64.9484 79.0322 64.9484ZM70.3457 58.541C68.8298 58.541 67.6365 59.7344 67.6365 61.2502C67.6365 62.0135 67.959 62.6585 68.3998 63.2068C68.9373 63.7443 69.5931 63.9701 70.3564 63.9701H78.4946V58.541H70.3564H70.3457Z" fill="#8364B1"/>
<path d="M70.7856 63.0993C69.6998 63.0993 68.9365 62.2285 68.9365 61.2502C68.9365 60.2719 69.8073 59.4011 70.7856 59.4011C71.8714 59.4011 72.6347 60.2719 72.6347 61.2502C72.6347 62.2285 71.8714 63.0993 70.7856 63.0993ZM70.7856 60.3902C70.2481 60.3902 69.9148 60.8202 69.9148 61.261C69.9148 61.7018 70.3449 62.1318 70.7856 62.1318C71.3232 62.1318 71.6564 61.7018 71.6564 61.261C71.6564 60.8202 71.3339 60.3902 70.7856 60.3902Z" fill="#8364B1"/>
<path d="M25.8587 78.29C25.6437 78.29 25.4287 78.075 25.4287 77.86V46.0704C25.4287 45.8554 25.6437 45.6404 25.8587 45.6404C26.0737 45.6404 26.2888 45.8554 26.2888 46.0704V77.86C26.3963 78.075 26.1813 78.29 25.8587 78.29Z" fill="#8364B1"/>
<path d="M77.5154 73.4091H25.8587C25.6437 73.4091 25.4287 73.1941 25.4287 72.9791C25.4287 72.7641 25.6437 72.5491 25.8587 72.5491H77.5047C77.7197 72.5491 77.9347 72.7641 77.9347 72.9791C77.9347 73.1941 77.8272 73.4091 77.5047 73.4091H77.5154Z" fill="#8364B1"/>
<path d="M74.5811 34.5673H68.722C68.507 34.5673 68.292 34.3523 68.292 34.1373C68.292 33.9223 68.507 33.7073 68.722 33.7073H74.5811C74.7961 33.7073 75.0111 33.9223 75.0111 34.1373C75.0111 34.3523 74.7961 34.5673 74.5811 34.5673Z" fill="#8364B1"/>
<path d="M38.1249 34.5673H26.181C25.966 34.5673 25.751 34.3523 25.751 34.1373C25.751 33.9223 25.966 33.7073 26.181 33.7073H38.1142C38.3292 33.7073 38.5442 33.9223 38.5442 34.1373C38.5442 34.3523 38.3292 34.5673 38.1142 34.5673H38.1249Z" fill="#8364B1"/>
<path d="M38.2337 41.5122C38.1262 41.5122 37.9111 41.4047 37.8036 41.2972C37.8036 41.1896 37.6961 41.1897 37.6961 41.0821C37.5886 40.8671 37.5886 40.5446 37.9111 40.4264C38.1262 40.3189 38.4487 40.3189 38.5669 40.6414C38.5669 40.6414 38.5669 40.7489 38.6744 40.7489C38.7819 40.9639 38.7819 41.2864 38.5669 41.4047C38.4594 41.5122 38.3519 41.5122 38.2444 41.5122H38.2337Z" fill="#8364B1"/>
<path d="M38.0172 41.0713C37.8022 41.0713 37.5872 40.9638 37.5872 40.7488V40.6413C37.4797 40.4263 37.6947 40.1038 37.9097 40.1038C38.1247 39.9963 38.4472 40.2113 38.4472 40.4263C38.5547 40.6413 38.4472 40.9638 38.1247 41.0821H38.0172V41.0713Z" fill="#8364B1"/>
<path d="M38.0173 40.9639C37.8023 40.9639 37.5873 40.8564 37.5873 40.6414C37.3723 39.8781 37.5873 39.1256 38.0173 38.5773C38.2323 38.3623 38.5548 38.3623 38.6731 38.5773C38.8881 38.7923 38.8881 39.1148 38.6731 39.2331C38.4581 39.5556 38.3506 39.9964 38.4581 40.3189C38.5656 40.5339 38.3506 40.8564 38.1356 40.9747H38.0281L38.0173 40.9639Z" fill="#8364B1"/>
<path d="M38.3412 39.3406C38.2337 39.3406 38.1262 39.3406 38.0187 39.2331C37.8037 39.0181 37.8037 38.6956 38.0187 38.5773L54.4026 22.1934C54.8326 21.7634 55.3809 21.5376 55.9184 21.5376C56.456 21.5376 57.0043 21.7526 57.4343 22.1934L59.3909 24.15C59.6059 24.365 59.6059 24.6875 59.3909 24.8058C59.1759 25.0208 58.8534 25.0208 58.7351 24.8058L56.7785 22.8492C56.5635 22.6342 56.241 22.5267 56.0152 22.5267C55.6927 22.5267 55.4777 22.6342 55.2519 22.8492L38.7605 39.2331C38.653 39.3406 38.5455 39.3406 38.3304 39.3406H38.3412Z" fill="#8364B1"/>
<path d="M61.8843 42.8129H45.5003C45.2853 42.8129 45.0703 42.5979 45.0703 42.3829C45.0703 42.1679 45.2853 41.9529 45.5003 41.9529H61.6693L67.8509 35.7713C68.1734 35.4487 68.2809 34.9005 68.0659 34.4704C68.0659 34.3629 67.9584 34.2554 67.8509 34.1479L58.7343 25.0314C58.5193 24.8164 58.5193 24.4939 58.7343 24.3756C58.9493 24.1606 59.2719 24.1606 59.3901 24.3756L68.5066 33.4921C68.6141 33.5996 68.8292 33.8146 68.8292 34.0297C69.2592 34.9005 69.1517 35.8788 68.5066 36.5238L62.2175 42.7054C62.11 42.8129 62.0025 42.8129 61.895 42.8129H61.8843Z" fill="#8364B1"/>
<path d="M41.0494 42.8129H39.5335C39.3185 42.8129 39.1035 42.5979 39.1035 42.3829C39.1035 42.1679 39.3185 41.9529 39.5335 41.9529H41.0494C41.2644 41.9529 41.4794 42.1679 41.4794 42.3829C41.4794 42.5979 41.2644 42.8129 41.0494 42.8129Z" fill="#8364B1"/>
<path d="M45.5005 42.8131H41.0497C40.8347 42.8131 40.7272 42.7056 40.6197 42.4906C40.5122 42.2756 40.6197 42.0605 40.7272 41.953L58.627 24.15C58.842 23.935 59.1645 23.935 59.2828 24.15L61.5619 26.4292C61.7769 26.6442 61.7769 26.9667 61.5619 27.0849L45.823 42.7056C45.823 42.8131 45.608 42.8131 45.5005 42.8131ZM42.2431 41.8348H45.393L60.5836 26.6442L58.9603 25.1283L42.2538 41.8348H42.2431Z" fill="#8364B1"/>
<path d="M39.5338 42.813H35.6313C35.5238 42.813 35.4163 42.813 35.3088 42.7055L33.5672 40.9746C32.6964 40.1038 32.6964 38.803 33.5672 37.9322L41.4904 30.009L49.8436 21.6558C50.2736 21.2258 50.8219 21 51.3594 21C51.897 21 52.4452 21.215 52.8753 21.6558L54.2836 23.0641C54.4986 23.2791 54.4986 23.6016 54.2836 23.7199L38.7705 39.233C38.5554 39.5556 38.4479 39.8888 38.5554 40.3188V40.4264C38.5554 40.5339 38.663 40.5339 38.663 40.6414C38.663 40.6414 38.663 40.7489 38.7705 40.7489L38.878 40.8564L40.0713 42.0497C40.1788 42.1572 40.2863 42.3722 40.1788 42.5872C39.9638 42.6947 39.7488 42.8022 39.523 42.8022L39.5338 42.813ZM35.8463 41.8347H38.3404L38.0179 41.5122C37.9462 41.4405 37.8746 41.3688 37.8029 41.2972C37.8029 41.2972 37.6954 41.1896 37.6954 41.0821C37.5879 40.9746 37.5879 40.8671 37.4804 40.7596V40.6521C37.2654 39.8888 37.4804 39.1363 37.9104 38.588C37.9104 38.588 37.9104 38.4805 38.0179 38.4805L53.2085 23.2791L52.1227 22.1933C51.9077 22.0858 51.6927 21.9783 51.3594 21.9783C51.0262 21.9783 50.8219 22.0858 50.5961 22.3008L42.1354 30.654L34.2122 38.5772C33.7822 39.0073 33.7822 39.7706 34.2122 40.2006L35.8355 41.8239L35.8463 41.8347Z" fill="#8364B1"/>
<path d="M77.5159 69.9367H33.9974C33.7824 69.9367 33.5674 69.7217 33.5674 69.5067C33.5674 69.2917 33.7824 69.0767 33.9974 69.0767H77.5051C77.7201 69.0767 77.9351 69.2917 77.9351 69.5067C77.9351 69.7217 77.8276 69.9367 77.5051 69.9367H77.5159Z" fill="#8364B1"/>
</svg>
