<svg width="100" height="100" viewBox="0 0 100 100" fill="none" xmlns="http://www.w3.org/2000/svg">
<path d="M36.1572 40.1609C36.6737 40.1609 37.203 40.5482 37.203 41.2067C37.203 41.7232 36.6866 42.2526 36.1572 42.2526C35.6278 42.2526 35.1113 41.8652 35.1113 41.2067C35.1113 40.5482 35.6278 40.1609 36.1572 40.1609Z" fill="white"/>
<path d="M68.3467 26.8618L70.9549 29.47L70.8258 29.5991C70.1802 30.2447 69.0052 30.2447 68.2176 29.5991C67.572 28.9535 67.572 27.7786 68.2176 26.9909C68.2176 26.8618 68.3467 26.8618 68.3467 26.8618Z" fill="white"/>
<path d="M67.83 23.9954L73.692 29.8573L72.517 30.9032L70.9547 29.3409L68.3465 26.8618L66.7842 25.1703L67.83 23.9954Z" fill="white"/>
<path d="M73.5559 22.9607L72.4512 24.0654L73.5559 25.1702L74.6606 24.0654L73.5559 22.9607Z" fill="white"/>
<path d="M73.9501 29.47C73.8209 29.5991 73.8209 29.7282 73.6918 29.7282L67.959 23.9954C68.6046 23.3498 69.3922 23.0786 70.3089 23.0786C71.2257 23.0786 72.0004 23.3368 72.6589 23.9954L73.8339 25.1703C74.8797 26.3453 74.8797 28.1659 73.963 29.47H73.9501Z" fill="white"/>
<path d="M78.2503 35.2029C79.2961 35.2029 80.0708 35.9905 80.0708 37.0234C80.0708 38.0564 79.2832 38.844 78.2503 38.844C77.2173 38.844 76.4297 38.0564 76.4297 37.0234C76.4297 35.9905 77.2173 35.2029 78.2503 35.2029Z" fill="white"/>
<path d="M78.5077 47.5854V49.0186H68.0879V47.5854C68.0879 46.7978 68.7335 46.1522 69.5211 46.1522H76.9454C77.8621 46.0231 78.5077 46.6687 78.5077 47.5854Z" fill="white"/>
<path d="M61.8258 44.9771V45.4935C61.8258 45.8809 61.8258 46.1391 61.6967 46.4103C61.5676 47.327 61.3093 48.2308 60.9091 48.8894H55.9509C55.4344 47.8435 55.0342 46.5394 55.0342 45.1062C55.0342 43.8021 55.2924 42.498 55.8218 41.4521H61.0382C61.2964 41.9686 61.5546 42.498 61.6838 43.1436V44.5768C61.7698 44.749 61.8129 44.8781 61.8129 44.9642L61.8258 44.9771Z" fill="white"/>
<path d="M66.1267 56.843C66.5141 56.843 66.9143 57.2304 66.9143 57.6306C66.9143 58.1471 66.527 58.5474 66.1267 58.5474C65.6102 58.5474 65.21 58.16 65.21 57.6306C65.21 57.2433 65.5973 56.843 66.1267 56.843Z" fill="white"/>
<path d="M49.7156 56.843C50.232 56.843 50.6323 57.2304 50.6323 57.6306C50.6323 58.1471 50.2449 58.5474 49.7156 58.5474C49.1862 58.5474 48.7988 58.16 48.7988 57.6306C48.9279 57.2433 49.1862 56.843 49.7156 56.843Z" fill="white"/>
<path d="M33.4206 56.843C33.9371 56.843 34.3374 57.2304 34.3374 57.6306C34.3374 58.1471 33.95 58.5474 33.4206 58.5474C32.8913 58.5474 32.5039 58.16 32.5039 57.6306C32.5039 57.2433 32.8913 56.843 33.4206 56.843Z" fill="white"/>
<path d="M57.915 54.8806V60.6135H41.4912V54.8806H57.915ZM50.6199 57.747C50.6199 57.2306 50.2325 56.9594 49.7031 56.9594C49.1737 56.9594 48.7864 57.3468 48.7864 57.747C48.7864 58.2635 49.1737 58.6638 49.7031 58.6638C50.2196 58.5347 50.6199 58.2764 50.6199 57.747Z" fill="white"/>
<path d="M74.2088 54.8806V60.6135H57.9141V54.8806H74.2088ZM66.9136 57.747C66.9136 57.2306 66.5262 56.9594 66.126 56.9594C65.6095 56.9594 65.2092 57.3468 65.2092 57.747C65.2092 58.2635 65.5966 58.6638 66.126 58.6638C66.5133 58.5347 66.9136 58.2764 66.9136 57.747Z" fill="white"/>
<path d="M41.5027 54.8806V60.6135H25.208V54.8806H41.5027ZM34.1946 57.747C34.1946 57.2306 33.8073 56.9594 33.2779 56.9594C32.7485 56.9594 32.3612 57.3468 32.3612 57.747C32.3612 58.2635 32.7485 58.6638 33.2779 58.6638C33.7944 58.5347 34.1946 58.2764 34.1946 57.747Z" fill="white"/>
<path d="M25.2086 60.6135V75.8623H19.3467V54.8806H25.2086V60.6135Z" fill="#BB99ED"/>
<path d="M80.07 54.8806V75.8623H74.208V60.6135V54.8806H80.07Z" fill="#BB99ED"/>
<path d="M84.8993 52.5435V54.8805H80.0702H74.2083H57.9136H41.5027H25.208H19.346H15.9502V49.0186H31.4573H40.9733H55.9639H60.922H68.2172H78.5079H84.8993V52.5435Z" fill="#BB99ED"/>
<path d="M36.1564 42.1107C36.6729 42.1107 37.2023 41.7234 37.2023 41.0649C37.2023 40.5484 36.6858 40.019 36.1564 40.019C35.627 40.019 35.1106 40.4064 35.1106 41.0649C35.1106 41.7234 35.627 42.1107 36.1564 42.1107ZM50.8759 38.1984V41.9816C50.8759 42.8983 50.0883 43.673 49.1844 43.673H22.9864C22.0696 43.673 21.2949 42.8854 21.2949 41.9816V23.2207C21.2949 22.304 22.0825 21.5293 22.9864 21.5293H49.1844C50.1012 21.5293 50.8759 22.3169 50.8759 23.2207V38.2114V38.1984Z" fill="white"/>
<path d="M84.8988 55.4099H80.0827C79.8245 55.4099 79.5662 55.1516 79.5662 54.8934C79.5662 54.6352 79.8245 54.3769 80.0827 54.3769H84.2532V49.6899H78.5204C78.2621 49.6899 78.0039 49.4317 78.0039 49.1735C78.0039 48.9152 78.2621 48.657 78.5204 48.657H84.7697C85.0279 48.657 85.2862 48.9152 85.2862 49.1735V55.0354C85.4153 55.1645 85.157 55.4228 84.8988 55.4228V55.4099Z" fill="#8364B1"/>
<path d="M68.2179 49.677H60.9227C60.6645 49.677 60.4062 49.4188 60.4062 49.1605C60.4062 48.9023 60.6645 48.644 60.9227 48.644H68.2179C68.4761 48.644 68.7344 48.9023 68.7344 49.1605C68.7344 49.4188 68.4761 49.677 68.2179 49.677Z" fill="#8364B1"/>
<path d="M55.9641 49.677H40.9735C40.7153 49.677 40.457 49.4188 40.457 49.1605C40.457 48.9023 40.7153 48.644 40.9735 48.644H55.9641C56.2224 48.644 56.4806 48.9023 56.4806 49.1605C56.4806 49.4188 56.2224 49.677 55.9641 49.677Z" fill="#8364B1"/>
<path d="M19.3459 55.41H15.9501C15.6918 55.41 15.4336 55.1518 15.4336 54.8936V49.0316C15.4336 48.7734 15.6918 48.5151 15.9501 48.5151H31.328C31.5863 48.5151 31.8445 48.7734 31.8445 49.0316C31.8445 49.2898 31.5863 49.5481 31.328 49.5481H16.6086V54.2351H19.3459C19.6041 54.2351 19.8623 54.4933 19.8623 54.7515C19.8623 55.0098 19.7332 55.3971 19.3459 55.3971V55.41Z" fill="#8364B1"/>
<path d="M19.3466 76.3916C19.0883 76.3916 18.8301 76.1334 18.8301 75.8751V54.8934C18.8301 54.6352 19.0883 54.377 19.3466 54.377H25.2085C25.4667 54.377 25.725 54.6352 25.725 54.8934C25.725 55.1517 25.4667 55.4099 25.2085 55.4099H19.9921V75.746C19.9921 76.1334 19.7339 76.3916 19.3466 76.3916Z" fill="#8364B1"/>
<path d="M25.2069 76.3917C24.9487 76.3917 24.6904 76.1334 24.6904 75.8752V60.6263C24.6904 60.3681 24.9487 60.1099 25.2069 60.1099C25.4651 60.1099 25.7234 60.3681 25.7234 60.6263V75.7461C25.7234 76.1334 25.4651 76.3917 25.2069 76.3917Z" fill="#8364B1"/>
<path d="M80.0701 76.3916H74.2081C73.9499 76.3916 73.6916 76.1334 73.6916 75.8751V60.6263C73.6916 60.368 73.9499 60.1098 74.2081 60.1098C74.4663 60.1098 74.7246 60.368 74.7246 60.6263V75.2166H79.4116V55.4099H74.1952C73.9369 55.4099 73.6787 55.1517 73.6787 54.8934C73.6787 54.6352 73.9369 54.377 74.1952 54.377H80.0571C80.3154 54.377 80.5736 54.6352 80.5736 54.8934V75.8751C80.5736 76.1334 80.3154 76.3916 80.0571 76.3916H80.0701Z" fill="#8364B1"/>
<path d="M41.5016 61.2719H25.2069C24.9487 61.2719 24.6904 61.0137 24.6904 60.7554V55.0226C24.6904 54.7643 24.9487 54.5061 25.2069 54.5061H41.5016C41.7598 54.5061 42.0181 54.7643 42.0181 55.0226C42.0181 55.2808 41.7598 55.539 41.5016 55.539H25.7363V60.0969H41.5016C41.7598 60.0969 42.0181 60.3552 42.0181 60.6134C42.0181 60.8716 41.889 61.259 41.5016 61.259V61.2719Z" fill="#8364B1"/>
<path d="M57.9129 61.2719H41.4891C41.2309 61.2719 40.9727 61.0137 40.9727 60.7554V55.0226C40.9727 54.7643 41.2309 54.5061 41.4891 54.5061H57.7838C58.0421 54.5061 58.3003 54.7643 58.3003 55.0226C58.3003 55.2808 58.0421 55.539 57.7838 55.539H42.1476V60.0969H57.9129C58.1712 60.0969 58.4294 60.3552 58.4294 60.6134C58.4294 60.8716 58.1712 61.259 57.9129 61.259V61.2719Z" fill="#8364B1"/>
<path d="M74.2086 61.2719H57.9139C57.6557 61.2719 57.3975 61.0137 57.3975 60.7554V55.0226C57.3975 54.7643 57.6557 54.5061 57.9139 54.5061H74.2086C74.4669 54.5061 74.7251 54.7643 74.7251 55.0226V60.7554C74.8542 61.0137 74.596 61.2719 74.2086 61.2719ZM58.4433 60.0969H73.563V55.539H58.4433V60.0969Z" fill="#8364B1"/>
<path d="M33.4186 59.1804C32.6309 59.1804 31.9854 58.5348 31.9854 57.7472C31.9854 56.9596 32.6309 56.314 33.4186 56.314C34.2062 56.314 34.8518 56.9596 34.8518 57.7472C34.8518 58.5348 34.2062 59.1804 33.4186 59.1804ZM33.4186 57.4889C33.2894 57.4889 33.1603 57.6181 33.1603 57.7472C33.1603 57.8763 33.2894 58.0054 33.4186 58.0054C33.5477 58.0054 33.6768 57.8763 33.6768 57.7472C33.6768 57.6181 33.5477 57.4889 33.4186 57.4889Z" fill="#8364B1"/>
<path d="M49.7135 59.1804C48.9259 59.1804 48.2803 58.5348 48.2803 57.7472C48.2803 56.9596 48.9259 56.314 49.7135 56.314C50.5011 56.314 51.1467 56.9596 51.1467 57.7472C51.1467 58.5348 50.5011 59.1804 49.7135 59.1804ZM49.7135 57.4889C49.5844 57.4889 49.4552 57.6181 49.4552 57.7472C49.4552 57.8763 49.5844 58.0054 49.7135 58.0054C49.8426 58.0054 49.9717 57.8763 49.9717 57.7472C49.9717 57.6181 49.8426 57.4889 49.7135 57.4889Z" fill="#8364B1"/>
<path d="M66.1246 59.1804C65.337 59.1804 64.6914 58.5348 64.6914 57.7472C64.6914 56.9596 65.337 56.314 66.1246 56.314C66.9122 56.314 67.5578 56.9596 67.5578 57.7472C67.4287 58.5348 66.9122 59.1804 66.1246 59.1804ZM66.1246 57.4889C65.9955 57.4889 65.8664 57.6181 65.8664 57.7472C65.8664 57.8763 65.9955 58.0054 66.1246 58.0054C66.2537 58.0054 66.3829 57.8763 66.3829 57.7472C66.2537 57.6181 66.2537 57.4889 66.1246 57.4889Z" fill="#8364B1"/>
<path d="M49.3146 44.3316H39.5404C39.2821 44.3316 39.0239 44.0734 39.0239 43.8152C39.0239 43.5569 39.2821 43.2987 39.5404 43.2987H49.3146C49.8311 43.2987 50.3605 42.7822 50.3605 42.2528V23.2208C50.3605 22.7044 49.844 22.175 49.3146 22.175H22.9874C22.471 22.175 21.9416 22.6914 21.9416 23.2208V42.1237C21.9416 42.6402 22.458 43.1696 22.9874 43.1696H32.7617C33.0199 43.1696 33.2781 43.4278 33.2781 43.686C33.2781 43.9443 33.0199 44.2025 32.7617 44.2025H22.9874C21.8125 44.2025 20.7666 43.1567 20.7666 41.9817V23.2208C20.7666 22.0459 21.8125 21 22.9874 21H49.1855C50.3605 21 51.4063 22.0459 51.4063 23.2208V42.1237C51.5354 43.2987 50.4896 44.3446 49.3146 44.3446V44.3316Z" fill="#8364B1"/>
<path d="M40.9721 49.6772H31.4561C31.327 49.6772 31.0688 49.5481 30.9397 49.419C30.8105 49.2899 30.8105 49.0316 30.8105 48.9025L32.2438 43.557C32.3729 43.2988 32.502 43.1697 32.7602 43.1697H39.5389C39.7972 43.1697 40.0554 43.2988 40.0554 43.557L41.4886 48.7734V49.0316C41.4886 49.419 41.2304 49.6772 40.9721 49.6772ZM32.1146 48.5023H40.0683L39.0225 44.3317H33.1605L32.1146 48.5023Z" fill="#8364B1"/>
<path d="M36.1571 42.7692C35.2403 42.7692 34.5947 42.1236 34.5947 41.2069C34.5947 40.2901 35.2403 39.6445 36.1571 39.6445C37.0738 39.6445 37.7194 40.4322 37.7194 41.2069C37.7194 41.9816 37.0738 42.7692 36.1571 42.7692ZM36.1571 40.6775C35.8988 40.6775 35.7697 40.8066 35.7697 41.0648C35.7697 41.3231 35.8988 41.4522 36.1571 41.4522C36.4153 41.4522 36.5444 41.3231 36.5444 41.0648C36.5444 40.9357 36.4153 40.6775 36.1571 40.6775Z" fill="#8364B1"/>
<path d="M50.8762 38.8572H23.7743C23.516 38.8572 23.2578 38.5989 23.2578 38.3407C23.2578 38.0825 23.516 37.8242 23.7743 37.8242H50.8891C51.1473 37.8242 51.4056 38.0825 51.4056 38.3407C51.4056 38.5989 51.2764 38.8572 50.8891 38.8572H50.8762Z" fill="#8364B1"/>
<path d="M43.7099 31.0325C43.5808 31.0325 43.4517 31.0325 43.3226 30.9034C43.0643 30.6452 43.0643 30.2578 43.3226 30.1158L46.9766 26.4617C47.2349 26.2035 47.6222 26.2035 47.7642 26.4617C48.0225 26.72 48.0225 27.1073 47.7642 27.2494L44.1102 30.9034C43.9811 31.0325 43.852 31.0325 43.7229 31.0325H43.7099Z" fill="#8364B1"/>
<path d="M39.7978 32.3366C39.6687 32.3366 39.5396 32.3366 39.4105 32.2074C39.1522 31.9492 39.1522 31.5618 39.4105 31.4198L44.6268 26.2034C44.8851 25.9452 45.2724 25.9452 45.4145 26.2034C45.6727 26.4617 45.6727 26.849 45.4145 26.9911L40.1981 32.2074C40.1981 32.2074 39.9399 32.3366 39.8107 32.3366H39.7978Z" fill="#8364B1"/>
<path d="M37.2021 34.9448C37.073 34.9448 36.9439 34.9448 36.8148 34.8157C36.5565 34.5575 36.5565 34.1701 36.8148 34.0281L37.9897 32.8531C38.248 32.5949 38.6353 32.5949 38.7774 32.8531C39.0356 33.1113 39.0356 33.4987 38.7774 33.6407L37.6024 34.8157C37.4733 34.9448 37.3442 34.9448 37.215 34.9448H37.2021Z" fill="#8364B1"/>
<path d="M78.5076 49.6774H68.0878C67.8295 49.6774 67.5713 49.4191 67.5713 49.1609V47.7277C67.5713 46.5527 68.488 45.636 69.663 45.636H77.0873C78.2623 45.636 79.179 46.5527 79.179 47.7277V49.1609C79.179 49.4191 78.9208 49.6774 78.5334 49.6774H78.5076ZM68.7333 48.5024H77.9911V47.5857C77.9911 47.0692 77.6038 46.6689 77.0744 46.6689H69.6501C69.1336 46.6689 68.7333 47.0563 68.7333 47.5857V48.5024Z" fill="#8364B1"/>
<path d="M78.2494 39.3737C76.9453 39.3737 75.8994 38.3279 75.8994 37.0238C75.8994 35.7197 76.9453 34.6738 78.2494 34.6738C79.5535 34.6738 80.5993 35.7197 80.5993 37.0238C80.7284 38.3279 79.5535 39.3737 78.2494 39.3737ZM78.2494 35.7326C77.6038 35.7326 77.0744 36.2491 77.0744 36.9076C77.0744 37.5661 77.5909 38.0825 78.2494 38.0825C78.9079 38.0825 79.4243 37.5661 79.4243 36.9076C79.5535 36.3911 78.9079 35.7326 78.2494 35.7326Z" fill="#8364B1"/>
<path d="M77.3325 35.9904C77.0743 35.9904 76.9451 35.8613 76.816 35.7321L73.2911 29.7411C73.162 29.4828 73.162 29.0955 73.5493 28.9534C73.8076 28.8243 74.1949 28.8243 74.3369 29.2117V29.3408L77.849 35.2028C77.9781 35.461 77.9781 35.8483 77.5907 35.9904H77.3325Z" fill="#8364B1"/>
<path d="M74.2078 46.6687C74.0786 46.6687 73.9495 46.6688 73.9495 46.5396C73.6913 46.4105 73.5622 46.0232 73.6913 45.752L77.7327 38.4568C77.8618 38.1986 78.2491 38.0695 78.5203 38.1986C78.7785 38.3277 78.9076 38.7151 78.7785 38.9862L74.7371 46.2814C74.608 46.5396 74.3498 46.6687 74.2207 46.6687H74.2078Z" fill="#8364B1"/>
<path d="M60.9218 49.6769H55.9637C55.7055 49.6769 55.5763 49.5478 55.4472 49.4187C54.8016 48.2437 54.4014 46.8105 54.4014 45.3773C54.4014 43.9441 54.6596 42.64 55.3181 41.465C55.4472 41.3359 55.5763 41.2068 55.8346 41.2068H61.0509C61.3092 41.2068 61.4383 41.3359 61.5674 41.465C61.8257 41.9815 62.0839 42.64 62.213 43.2856C62.3421 43.5438 62.0839 43.9312 61.8257 43.9312C61.5674 44.0603 61.1801 43.8021 61.1801 43.5438C61.0509 43.1565 60.9218 42.6271 60.7927 42.2397H56.364C55.9766 43.1565 55.7184 44.1894 55.7184 45.2353C55.7184 46.4102 55.9766 47.5852 56.364 48.489H60.6636C60.9218 47.9726 61.1801 47.185 61.3092 46.5394C61.3092 46.2811 61.4383 46.0229 61.4383 45.6226V45.4935H62.6133V45.6226C62.6133 46.01 62.6133 46.2682 62.4842 46.6685C62.355 47.7143 62.0968 48.6182 61.5674 49.4058C61.3092 49.5349 61.0509 49.664 60.9218 49.664V49.6769Z" fill="#8364B1"/>
<path d="M61.8251 45.5068C61.5668 45.5068 61.3086 45.2485 61.3086 44.9903V44.8612C61.3086 44.6029 61.5668 44.2156 61.8251 44.2156C62.0833 44.2156 62.4707 44.4738 62.4707 44.732V44.9903C62.3415 45.2485 62.0833 45.5068 61.8251 45.5068Z" fill="#8364B1"/>
<path d="M61.8252 45.2354C61.567 45.2354 61.3088 44.9772 61.3088 44.719V44.0734V43.5569C61.1796 43.2987 61.4379 42.9113 61.6961 42.9113C61.9543 42.7822 62.3417 43.0404 62.3417 43.2987V44.4736C62.3417 44.9901 62.0835 45.2612 61.8252 45.2612V45.2354Z" fill="#8364B1"/>
<path d="M61.9544 47.0689H61.6962C61.567 47.0689 61.4379 46.9398 61.3088 46.8106C61.1797 46.6815 61.1797 46.5524 61.1797 46.2942C61.1797 46.0359 61.3088 45.6486 61.3088 45.3774V44.5898V43.9442V43.2986C61.3088 43.1695 61.3088 42.9113 61.4379 42.7822C61.567 42.653 61.6962 42.5239 61.8253 42.5239H62.2126C63.6458 42.5239 64.8208 43.5698 64.8208 44.7448C64.5626 46.178 63.3876 47.0947 61.9544 47.0947V47.0689ZM62.3547 44.5898V45.8939C62.8711 45.7648 63.4005 45.3774 63.4005 44.9772C63.4005 44.4607 62.884 44.0604 62.3547 43.9313V44.5769V44.5898Z" fill="#8364B1"/>
<path d="M56.3505 37.0366C56.0922 37.0366 55.834 36.7783 55.834 36.5201V34.5704C55.834 34.3122 56.0922 34.054 56.3505 34.054C56.6087 34.054 56.8669 34.3122 56.8669 34.5704V36.5201C56.996 36.7783 56.7378 37.0366 56.3505 37.0366Z" fill="#8364B1"/>
<path d="M58.0546 39.5026C57.7963 39.5026 57.5381 39.2444 57.5381 38.9861V35.9906C57.5381 35.7324 57.7963 35.4741 58.0546 35.4741C58.3128 35.4741 58.571 35.7324 58.571 35.9906V38.857C58.571 39.2444 58.3128 39.5026 58.0546 39.5026Z" fill="#8364B1"/>
<path d="M62.9996 76.3918H16.4784C16.2202 76.3918 15.9619 76.1336 15.9619 75.8754C15.9619 75.6171 16.2202 75.3589 16.4784 75.3589H63.1288C63.387 75.3589 63.6452 75.6171 63.6452 75.8754C63.6452 76.1336 63.387 76.3918 62.9996 76.3918Z" fill="#8364B1"/>
<path d="M76.0281 79H43.7098C43.4516 79 43.1934 78.7418 43.1934 78.4835C43.1934 78.2253 43.4516 77.967 43.7098 77.967H76.0281C76.2863 77.967 76.5446 78.2253 76.5446 78.4835C76.5446 78.7418 76.2863 79 76.0281 79Z" fill="#8364B1"/>
<path d="M83.3362 79H79.2948C79.0366 79 78.7783 78.7418 78.7783 78.4835C78.7783 78.2253 79.0366 77.967 79.2948 77.967H83.3362C83.5944 77.967 83.8527 78.2253 83.8527 78.4835C83.8527 78.7418 83.7235 79 83.3362 79Z" fill="#8364B1"/>
<path d="M29.8944 78.8577H14.5165C14.2582 78.8577 14 78.5994 14 78.3412C14 78.0829 14.2582 77.8247 14.5165 77.8247H29.7653C30.0236 77.8247 30.2818 78.0829 30.2818 78.3412C30.2818 78.5994 30.1527 78.8577 29.8944 78.8577Z" fill="#8364B1"/>
<path d="M84.8981 53.06H34.0643C33.8061 53.06 33.5479 52.8018 33.5479 52.5436C33.5479 52.2853 33.8061 52.0271 34.0643 52.0271H84.7561C85.0143 52.0271 85.2726 52.2853 85.2726 52.5436C85.2726 52.8018 85.1434 53.06 84.8852 53.06H84.8981Z" fill="#8364B1"/>
<path d="M69.5216 30.6448C68.876 30.6448 68.2175 30.3866 67.8302 29.9992C67.4428 29.6119 67.1846 28.9534 67.1846 28.3078C67.1846 27.6622 67.4428 27.1328 67.8302 26.6163L67.9593 26.4872C68.2175 26.229 68.6049 26.3581 68.7469 26.6163C69.0051 26.8746 68.876 27.2619 68.6178 27.4039L68.4887 27.5331C68.2304 27.7913 68.1013 28.0495 68.1013 28.4498C68.1013 28.8501 68.2304 29.0954 68.4887 29.3665C68.7469 29.6248 69.0051 29.7539 69.4054 29.7539C69.6636 29.7539 70.051 29.6248 70.3221 29.3665L70.4513 29.2374C70.7095 28.9792 70.9677 28.9792 71.2389 29.1083C71.4971 29.3665 71.4971 29.6248 71.368 29.8959L71.2389 30.025C70.7224 30.4124 70.193 30.6706 69.5474 30.6706L69.5216 30.6448Z" fill="#8364B1"/>
<path d="M72.5169 31.5617C72.3878 31.5617 72.2587 31.5617 72.1295 31.4326L66.3967 25.6998C66.2676 25.5706 66.2676 25.4415 66.2676 25.3124C66.2676 25.1833 66.2676 25.0542 66.3967 24.925L67.5717 23.7501C67.8299 23.4918 68.2173 23.4918 68.3593 23.7501C68.6175 24.0083 68.6175 24.3957 68.3593 24.5377L67.5717 25.3253L72.5298 30.2834L73.3174 29.4958C73.5757 29.2376 73.963 29.2376 74.105 29.4958C74.3633 29.7541 74.3633 30.1414 74.105 30.2834L72.9301 31.4584C72.801 31.4584 72.6718 31.5875 72.5427 31.5875L72.5169 31.5617Z" fill="#8364B1"/>
<path d="M73.6909 30.3871C73.5618 30.3871 73.4327 30.3871 73.3036 30.2579L67.4416 24.5251C67.3125 24.396 67.3125 24.2669 67.3125 24.0086C67.3125 23.8795 67.3125 23.7504 67.4416 23.6213C68.2292 22.8336 69.1331 22.4463 70.1789 22.4463C71.2248 22.4463 72.1286 22.8336 72.9162 23.6213C73.1745 23.8795 73.1745 24.2669 72.9162 24.4089C72.658 24.6671 72.2706 24.6671 72.1286 24.4089C71.6121 23.8924 70.9536 23.6213 70.308 23.6213C69.7916 23.6213 69.2622 23.7504 68.8748 24.0086L73.6909 28.8247C74.3365 27.7789 74.2074 26.3457 73.3036 25.5709C73.0453 25.3127 73.0453 24.9254 73.3036 24.7833C73.5618 24.5251 73.9492 24.5251 74.0912 24.7833C75.5244 26.2165 75.6535 28.3083 74.3494 29.8706C74.2203 29.9997 74.2203 30.1288 74.0912 30.2579C73.9621 30.3871 73.833 30.3871 73.7038 30.3871H73.6909Z" fill="#8364B1"/>
<path d="M73.6916 25.8161C73.5624 25.8161 73.4333 25.8161 73.3042 25.687L72.1292 24.512C71.871 24.2537 71.871 23.8664 72.1292 23.7244L73.3042 22.5494C73.5624 22.2912 73.9498 22.2912 74.0918 22.5494L75.2668 23.7244C75.3959 23.8535 75.3959 23.9826 75.3959 24.1117C75.3959 24.2408 75.3959 24.37 75.2668 24.4991L74.0918 25.674C73.9627 25.674 73.8336 25.8032 73.7045 25.8032L73.6916 25.8161ZM73.2913 23.9955L73.5495 24.2537L73.8078 23.9955L73.5495 23.7373L73.2913 23.9955Z" fill="#8364B1"/>
</svg>
