<svg width="100" height="100" viewBox="0 0 100 100" fill="none" xmlns="http://www.w3.org/2000/svg">
<path d="M41.3018 55.1239C44.981 57.2453 47.5443 61.256 47.5443 65.9406C47.5443 72.8571 41.9647 78.4257 35.0593 78.4257C28.1538 78.4257 22.5742 72.8461 22.5742 65.9406C22.5742 61.3664 25.1375 57.2453 28.8167 55.1239C30.5956 54.008 32.8274 53.4556 35.0593 53.4556C37.2911 53.4556 39.4125 54.008 41.3018 55.1239Z" fill="#BB99ED"/>
<path d="M41.3024 55.1242C39.5125 54.0083 37.2917 53.4558 35.0598 53.4558C32.828 53.4558 30.5962 54.0083 28.8173 55.1242C25.1381 57.2455 22.5748 61.2562 22.5748 65.9409C22.5748 72.8574 28.1544 78.4259 35.0598 78.4259C41.9653 78.4259 47.5449 72.8463 47.5449 65.9409C47.5449 61.2562 44.9816 57.2455 41.3024 55.1242ZM35.0598 51.3345C43.0923 51.3345 49.6662 57.9195 49.6662 65.9409C49.6662 73.9622 43.0812 80.5473 35.0598 80.5473C27.0385 80.5473 20.4424 73.9733 20.4424 65.9409C20.4424 57.9085 26.9059 51.3345 35.0488 51.3345H35.0598Z" fill="white"/>
<path d="M59.5882 55.1239C61.3671 54.008 63.5989 53.4556 65.8308 53.4556C68.0626 53.4556 70.2944 54.008 72.0733 55.1239C73.9737 56.2398 75.5315 57.7977 76.6474 59.6981C77.7634 61.488 78.3158 63.7088 78.3158 65.9406C78.3158 72.8571 72.7362 78.4257 65.8308 78.4257C61.2566 78.4257 57.1354 75.8624 55.0141 72.1831C53.8981 70.3932 53.3457 68.1725 53.3457 65.9406C53.3457 63.7088 53.8981 61.4769 55.0141 59.6981C56.13 57.7977 57.6878 56.1294 59.5882 55.1239Z" fill="white"/>
<path d="M55.0143 72.1945C57.1357 75.8737 61.1464 78.437 65.831 78.437C72.7475 78.437 78.3161 72.8574 78.3161 65.9519C78.3161 63.7201 77.7636 61.4882 76.6477 59.7094C75.5318 57.809 73.9739 56.2511 72.0735 55.1352C70.2947 54.0193 68.0629 53.4669 65.831 53.4669C63.5992 53.4669 61.4778 54.0193 59.5885 55.1352C57.6881 56.2511 56.1302 57.809 55.0143 59.7094C53.8984 61.4993 53.346 63.7201 53.346 65.9519C53.346 68.1838 54.0199 70.3051 55.0143 72.1945ZM65.831 51.3345C73.8634 51.3345 80.4374 57.9195 80.4374 65.9409C80.4374 73.9622 73.8524 80.5473 65.831 80.5473C57.8096 80.5473 51.2246 73.9622 51.2246 65.9409C51.2246 57.9195 57.8096 51.3345 65.831 51.3345Z" fill="white"/>
<path d="M59.5882 24.121C61.3671 23.0051 63.5989 22.4526 65.8308 22.4526C68.0626 22.4526 70.2944 23.0051 72.0733 24.121C75.7525 26.2423 78.3158 30.3635 78.3158 34.9377C78.3158 39.5119 75.7525 43.633 72.0733 45.7544C70.2944 46.8703 68.0626 47.4227 65.8308 47.4227C63.5989 47.4227 61.4776 46.8703 59.5882 45.7544C55.909 43.633 53.3457 39.6223 53.3457 34.9377C53.3457 32.7058 53.8981 30.474 55.0141 28.6952C56.13 26.7948 57.6878 25.2369 59.5882 24.121Z" fill="#BB99ED"/>
<path d="M72.0846 24.1213C70.3057 23.0053 68.0739 22.4529 65.8421 22.4529C63.6102 22.4529 61.4889 23.0053 59.5995 24.1213C57.6992 25.2372 56.1413 26.795 55.0254 28.6954C53.9094 30.4743 53.357 32.7061 53.357 34.9379C53.357 39.5121 55.9203 43.6333 59.5995 45.7546C61.3784 46.8706 63.6102 47.423 65.8421 47.423C68.0739 47.423 70.3057 46.8706 72.0846 45.7546C75.7638 43.6333 78.3271 39.5121 78.3271 34.9379C78.3271 30.3638 75.8743 26.3531 72.0846 24.1213ZM65.831 20.3315C73.8634 20.3315 80.4374 26.9166 80.4374 34.9379C80.4374 42.9593 73.8524 49.5443 65.831 49.5443C57.8096 49.5443 51.2246 42.9593 51.2246 34.9379C51.2246 26.9166 57.8096 20.3315 65.831 20.3315Z" fill="white"/>
<path d="M41.3018 24.121C44.981 26.2423 47.5443 30.3635 47.5443 34.9377C47.5443 39.5119 44.981 43.633 41.3018 45.7544C39.5119 46.8703 37.2911 47.4227 35.0593 47.4227C32.8274 47.4227 30.5956 46.8703 28.8167 45.7544C25.1375 43.633 22.5742 39.5119 22.5742 34.9377C22.5742 30.3635 25.1265 26.2423 28.8057 24.121C30.5845 23.0051 32.8164 22.4526 35.0482 22.4526C37.2801 22.4526 39.4014 23.1266 41.2907 24.121H41.3018Z" fill="white"/>
<path d="M41.3024 45.7657C44.9816 43.6443 47.5449 39.6336 47.5449 34.949C47.5449 30.2643 44.9816 26.2537 41.3024 24.1323C39.5125 23.0164 37.2917 22.4639 35.0598 22.4639C32.828 22.4639 30.5962 23.0164 28.8173 24.1323C25.1381 26.2537 22.5748 30.3748 22.5748 34.949C22.5748 39.5232 25.1381 43.6443 28.8173 45.7657C30.5962 46.8816 32.828 47.434 35.0598 47.434C37.2917 47.434 39.413 46.8816 41.3024 45.7657ZM35.0598 20.3315C43.0923 20.3315 49.6662 26.9166 49.6662 34.9379C49.6662 42.9593 43.0812 49.5443 35.0598 49.5443C27.0385 49.5443 20.4424 42.9704 20.4424 34.949C20.4424 26.9276 26.9169 20.3315 35.0598 20.3315Z" fill="white"/>
<path d="M65.8303 47.9864C63.5985 47.9864 61.2561 47.434 59.3668 46.2076C55.3561 43.8652 52.9033 39.6225 52.9033 34.9489C52.9033 32.7171 53.4558 30.3748 54.6932 28.4854C55.8091 26.4746 57.4775 24.9167 59.4884 23.6903C61.4992 22.5744 63.7311 21.9004 65.9519 21.9004C68.1726 21.9004 70.526 22.4528 72.4153 23.6903C76.426 26.0326 78.8788 30.2753 78.8788 34.9489C78.8788 39.6225 76.426 43.8652 72.4153 46.2076C70.4045 47.3235 68.1726 47.9864 65.8303 47.9864ZM65.8303 23.0053C63.709 23.0053 61.7091 23.5577 59.8088 24.5631C58.0299 25.5686 56.461 27.1264 55.4556 28.9163C54.4501 30.7062 53.8977 32.8165 53.8977 34.9379C53.8977 39.1695 56.24 43.1913 59.9193 45.3126C61.7091 46.3181 63.8195 46.8705 65.9408 46.8705C68.0622 46.8705 70.062 46.3181 71.9624 45.3126C75.6416 43.1913 77.9839 39.1806 77.9839 34.9379C77.9839 30.6952 75.6416 26.6845 71.9624 24.5631C70.062 23.5577 67.9517 23.0053 65.8303 23.0053Z" fill="#8364B1"/>
<path d="M65.8306 25.5795C65.6096 25.5795 65.3887 25.3585 65.3887 25.1376V22.5743C65.3887 22.3533 65.6096 22.1323 65.8306 22.1323C66.0516 22.1323 66.2726 22.3533 66.2726 22.5743V25.1376C66.3831 25.3585 66.1621 25.5795 65.8306 25.5795Z" fill="#8364B1"/>
<path d="M70.8574 26.9165C70.7469 26.9165 70.6364 26.9165 70.6364 26.8061C70.4154 26.6956 70.3049 26.3641 70.4154 26.1321L71.7523 23.9002C71.7523 23.9002 71.7523 23.7898 71.8628 23.7898C72.0838 23.5688 72.4152 23.5688 72.5368 23.7898C72.6473 24.0107 72.7577 24.2317 72.6473 24.4637L71.4208 26.6956C71.1999 26.8061 70.9789 26.9165 70.8684 26.9165H70.8574Z" fill="#8364B1"/>
<path d="M74.4257 30.4853C74.2047 30.4853 74.0943 30.3748 73.9838 30.2643C73.8733 30.0433 73.9838 29.7118 74.2047 29.5903L76.4366 28.3639C76.6576 28.2534 76.989 28.3639 77.1106 28.5849C77.221 28.8058 77.1106 29.1373 76.8896 29.2588L74.6577 30.4853H74.4368H74.4257Z" fill="#8364B1"/>
<path d="M78.3265 35.5013H75.7632C75.5423 35.5013 75.3213 35.2804 75.3213 35.0594C75.3213 34.8384 75.5423 34.6174 75.7632 34.6174H78.3265C78.5475 34.6174 78.7685 34.8384 78.7685 35.0594C78.7685 35.2804 78.658 35.5013 78.3265 35.5013Z" fill="#8364B1"/>
<path d="M76.6458 41.7439C76.5354 41.7439 76.4249 41.7439 76.4249 41.6334L74.193 40.407C73.9721 40.2966 73.8616 39.9651 73.9721 39.7331C74.0825 39.5121 74.414 39.4016 74.646 39.5121L76.8779 40.7385C77.0988 40.849 77.2093 41.1804 77.0988 41.4125C76.9884 41.6334 76.8779 41.7439 76.6569 41.7439H76.6458Z" fill="#8364B1"/>
<path d="M72.084 46.3179C71.8631 46.3179 71.7526 46.2074 71.6421 46.0969L70.4157 43.8651C70.3052 43.6441 70.3052 43.3126 70.6367 43.1911C70.8576 43.0806 71.1891 43.0806 71.3106 43.4121L72.6475 45.6439C72.6475 45.7544 72.758 45.7544 72.758 45.8649C72.6475 46.0858 72.4266 46.3068 72.084 46.3068V46.3179Z" fill="#8364B1"/>
<path d="M65.8306 47.9863C65.6096 47.9863 65.3887 47.7653 65.3887 47.5443V44.981C65.3887 44.76 65.6096 44.5391 65.8306 44.5391C66.0516 44.5391 66.2726 44.76 66.2726 44.981V47.5443C66.3831 47.7653 66.1621 47.9863 65.8306 47.9863Z" fill="#8364B1"/>
<path d="M59.5878 46.318C59.4773 46.318 59.3669 46.318 59.3669 46.2075C59.1459 46.097 59.0354 45.7655 59.1459 45.5335L60.3723 43.3017C60.4828 43.0807 60.8142 42.9702 61.0463 43.0807C61.2672 43.1912 61.3777 43.5226 61.2672 43.7547L60.0408 45.9865C59.9303 46.2075 59.8199 46.318 59.5989 46.318H59.5878Z" fill="#8364B1"/>
<path d="M55.0136 41.7438C54.7926 41.7438 54.6822 41.6333 54.5717 41.5228C54.4612 41.3019 54.5717 40.9704 54.7926 40.8489L57.0245 39.6224C57.2455 39.512 57.5769 39.6224 57.6984 39.8434C57.8089 40.0644 57.6984 40.3959 57.4775 40.5174L55.2456 41.7438H55.0247H55.0136Z" fill="#8364B1"/>
<path d="M55.9086 35.5013H53.3453C53.1243 35.5013 52.9033 35.2804 52.9033 35.0594C52.9033 34.8384 53.1243 34.6174 53.3453 34.6174H55.9086C56.1295 34.6174 56.3505 34.8384 56.3505 35.0594C56.3505 35.2804 56.24 35.5013 55.9086 35.5013Z" fill="#8364B1"/>
<path d="M57.2455 30.4851C57.135 30.4851 57.0245 30.4851 57.0245 30.3747L54.7926 29.1483C54.5717 29.0378 54.4612 28.7063 54.5717 28.4743C54.6822 28.2533 55.0136 28.1428 55.2456 28.2533L57.4775 29.4797C57.6984 29.5902 57.8089 29.9217 57.6984 30.1537C57.588 30.4851 57.4775 30.4851 57.2565 30.4851H57.2455Z" fill="#8364B1"/>
<path d="M60.9256 26.9165C60.7046 26.9165 60.5941 26.806 60.4836 26.6955L59.2572 24.4637C59.1467 24.2427 59.2572 23.9112 59.4782 23.7897C59.6992 23.6792 60.0306 23.7897 60.1522 24.0107L61.3786 26.2425C61.4891 26.4635 61.3786 26.7949 61.1576 26.9165H60.9366H60.9256Z" fill="#8364B1"/>
<path d="M68.7355 36.3961H68.625L65.1668 35.3906C65.0563 35.3906 64.9458 35.2801 64.8353 35.1696L62.9349 31.159C62.8245 30.938 62.9349 30.6065 63.1559 30.485C63.3769 30.3745 63.7084 30.485 63.8299 30.706L65.6087 34.4957L68.846 35.3906C69.067 35.5011 69.288 35.7221 69.1775 36.0646C69.067 36.1751 68.9565 36.3961 68.7355 36.3961Z" fill="#8364B1"/>
<path d="M65.8289 50.1077C57.4651 50.1077 50.7695 43.3017 50.7695 35.0483C50.7695 26.795 57.5755 20 65.8289 20C74.0823 20 80.8883 26.806 80.8883 35.0594C80.9988 43.3128 74.1928 50.1188 65.8289 50.1188V50.1077ZM65.8289 20.8949C58.0175 20.8949 51.775 27.248 51.775 34.9489C51.775 42.6499 58.128 49.0029 65.8289 49.0029C73.5299 49.0029 79.8829 42.6499 79.8829 34.9489C79.9934 27.259 73.6404 20.8949 65.8289 20.8949Z" fill="#8364B1"/>
<path d="M35.0588 47.9862C32.827 47.9862 30.4847 47.4338 28.5953 46.2074C24.5847 43.8651 22.1318 39.6223 22.1318 34.9487C22.1318 30.2751 24.5736 26.0214 28.5843 23.6791C30.5952 22.5631 32.827 21.8892 35.0478 21.8892C37.2686 21.8892 39.622 22.4416 41.5113 23.6791C45.522 26.0214 47.9748 30.2641 47.9748 34.9377C47.9748 39.6113 45.522 43.854 41.5113 46.1963C39.5004 47.3123 37.2686 47.9752 35.0478 47.9752L35.0588 47.9862ZM35.0588 23.0051C32.9375 23.0051 30.9377 23.5575 29.0373 24.5629C25.3581 26.6843 23.0157 30.695 23.0157 34.9377C23.0157 39.1804 25.3581 43.1911 29.0373 45.3124C30.8272 46.3179 32.9375 46.8703 35.0588 46.8703C37.1802 46.8703 39.18 46.3179 41.0804 45.3124C44.7596 43.1911 47.1019 39.1804 47.1019 34.9377C47.1019 30.695 44.7596 26.6843 41.0804 24.5629C39.18 23.5575 37.1802 23.0051 35.0588 23.0051Z" fill="#8364B1"/>
<path d="M35.0601 25.5795C34.8391 25.5795 34.6182 25.3585 34.6182 25.1376V22.5743C34.6182 22.3533 34.8391 22.1323 35.0601 22.1323C35.2811 22.1323 35.5021 22.3533 35.5021 22.5743V25.1376C35.5021 25.3585 35.2811 25.5795 35.0601 25.5795Z" fill="#8364B1"/>
<path d="M39.9658 26.9164C39.8553 26.9164 39.7448 26.9164 39.7448 26.8059C39.5238 26.6954 39.4133 26.3639 39.5238 26.1319L40.7502 23.9001C40.8607 23.6791 41.1922 23.5686 41.4242 23.6791C41.6452 23.7896 41.7557 24.121 41.6452 24.3531L40.3083 26.5849C40.3083 26.8059 40.1978 26.9164 39.9768 26.9164H39.9658Z" fill="#8364B1"/>
<path d="M43.6445 30.4853C43.4235 30.4853 43.313 30.3748 43.2025 30.2643C43.092 30.0433 43.2025 29.7118 43.4235 29.5903L45.6553 28.3639C45.8763 28.2534 46.2078 28.3639 46.3293 28.5849C46.4398 28.8058 46.3293 29.1373 46.1083 29.2588L43.8765 30.4853H43.6555H43.6445Z" fill="#8364B1"/>
<path d="M47.5443 35.5013H44.981C44.76 35.5013 44.5391 35.2804 44.5391 35.0594C44.5391 34.8384 44.76 34.6174 44.981 34.6174H47.5443C47.7653 34.6174 47.9863 34.8384 47.9863 35.0594C47.9863 35.2804 47.7653 35.5013 47.5443 35.5013Z" fill="#8364B1"/>
<path d="M45.8763 41.7439C45.7658 41.7439 45.6553 41.7439 45.6553 41.6334L43.4235 40.407C43.2025 40.2966 43.092 39.9651 43.2025 39.7331C43.313 39.5121 43.6445 39.4016 43.8765 39.5121L46.1083 40.7385C46.3293 40.849 46.4398 41.1804 46.3293 41.4125C46.2188 41.6334 45.9978 41.7439 45.8874 41.7439H45.8763Z" fill="#8364B1"/>
<path d="M41.302 46.3179C41.1915 46.3179 41.081 46.3179 40.9705 46.2074L40.86 46.0969L39.5231 43.8651C39.4126 43.6441 39.4126 43.3126 39.7441 43.1911C39.9651 43.0806 40.2965 43.0806 40.4181 43.4121L41.6445 45.6439C41.755 45.8649 41.755 46.0858 41.534 46.3179C41.534 46.2074 41.4235 46.3179 41.313 46.3179H41.302Z" fill="#8364B1"/>
<path d="M35.0601 47.9863C34.8391 47.9863 34.6182 47.7653 34.6182 47.5443V44.981C34.6182 44.76 34.8391 44.5391 35.0601 44.5391C35.2811 44.5391 35.5021 44.76 35.5021 44.981V47.5443C35.5021 47.7653 35.2811 47.9863 35.0601 47.9863Z" fill="#8364B1"/>
<path d="M28.8061 46.318C28.6956 46.318 28.5851 46.318 28.4746 46.2075C28.3641 45.9865 28.2536 45.7655 28.3641 45.5335L29.5905 43.3017C29.701 43.0807 30.0325 42.9702 30.2645 43.0807C30.4855 43.1912 30.596 43.5226 30.4855 43.7547L29.1486 45.9865C29.1486 45.9865 29.1486 46.097 29.0381 46.097C29.0381 46.2075 28.9276 46.318 28.8171 46.318H28.8061Z" fill="#8364B1"/>
<path d="M24.2421 41.7438C24.0212 41.7438 23.9107 41.6333 23.8002 41.5228C23.6897 41.3019 23.8002 40.9704 24.0212 40.8489L26.253 39.6224C26.474 39.512 26.8054 39.6224 26.927 39.8434C27.0375 40.0644 26.927 40.3959 26.706 40.5174L24.4742 41.7438H24.2532H24.2421Z" fill="#8364B1"/>
<path d="M25.1263 35.5013H22.563C22.3421 35.5013 22.1211 35.2804 22.1211 35.0594C22.1211 34.8384 22.3421 34.6174 22.563 34.6174H25.1263C25.3473 34.6174 25.5683 34.8384 25.5683 35.0594C25.5683 35.2804 25.3473 35.5013 25.1263 35.5013Z" fill="#8364B1"/>
<path d="M26.4632 30.4851C26.3527 30.4851 26.2423 30.4851 26.2423 30.3747L24.0104 29.1483C23.7894 29.0378 23.679 28.7063 23.7894 28.4743C23.8999 28.2533 24.2314 28.1428 24.4634 28.2533L26.6953 29.4797C26.9162 29.5902 27.0267 29.9217 26.9162 30.1537C26.8057 30.4851 26.5848 30.4851 26.4743 30.4851H26.4632Z" fill="#8364B1"/>
<path d="M30.0321 26.9165C29.8112 26.9165 29.7007 26.806 29.5902 26.6955L28.2533 24.4637C28.1428 24.2427 28.2533 23.9112 28.4743 23.7897C28.6953 23.6792 29.0267 23.7897 29.1483 24.0107L30.3747 26.2425C30.4851 26.4635 30.4851 26.7949 30.1537 26.9165C30.2642 26.9165 30.1537 26.9165 30.0432 26.9165H30.0321Z" fill="#8364B1"/>
<path d="M35.06 35.5015C34.9495 35.5015 34.839 35.5016 34.7285 35.3911L31.0493 32.8278C30.8283 32.7173 30.7178 32.3858 30.9388 32.1538C31.0493 31.9328 31.3808 31.8223 31.6128 32.0433L35.071 34.4961L38.4188 33.7117C38.6398 33.6012 38.9712 33.8221 38.9712 34.0431C39.0817 34.2641 38.8607 34.5956 38.6398 34.5956L35.071 35.4905L35.06 35.5015Z" fill="#8364B1"/>
<path d="M35.0594 50.1077C26.6955 50.1077 20 43.3017 20 35.0594C20 26.8171 26.806 20 35.0594 20C43.3128 20 50.1188 26.806 50.1188 35.0594C50.1188 43.3128 43.3128 50.1188 35.0594 50.1188V50.1077ZM35.0594 20.8949C27.248 20.8949 21.0054 27.248 21.0054 34.9489C21.0054 42.6499 27.3584 49.0029 35.0594 49.0029C42.7604 49.0029 49.1134 42.6499 49.1134 34.9489C49.1134 27.248 42.7493 20.8949 35.0594 20.8949Z" fill="#8364B1"/>
<path d="M65.8298 78.8786C61.2556 78.8786 56.9135 76.4258 54.5711 72.4151C53.4552 70.4042 52.7812 68.1724 52.7812 65.9516C52.7812 63.7308 53.3337 61.3774 54.5711 59.4881C55.6871 57.4772 57.3554 55.9194 59.3663 54.693C61.3772 53.577 63.609 52.9031 65.8298 52.9031C68.0506 52.9031 70.404 53.4555 72.2933 54.693C74.3041 55.8089 75.862 57.4772 77.0884 59.4881C78.2043 61.499 78.8673 63.7308 78.8673 65.9516C78.8673 73.0891 72.9562 78.8897 65.8187 78.8897L65.8298 78.8786ZM65.8298 53.8975C63.7084 53.8975 61.7086 54.4499 59.8082 55.4553C58.0294 56.5712 56.571 58.1291 55.455 59.919C54.4496 61.6979 53.8972 63.8192 53.8972 65.9406C53.8972 68.0619 54.4496 70.0617 55.455 71.9621C57.5764 75.6413 61.5871 77.9837 65.8298 77.9837C72.4148 77.9837 77.7624 72.6361 77.7624 66.051C77.7624 63.9297 77.21 61.9299 76.2045 60.0295C75.1991 58.2396 73.6412 56.6817 71.8513 55.6763C70.0725 54.4499 67.9511 53.8864 65.8298 53.8864V53.8975Z" fill="#8364B1"/>
<path d="M65.8306 56.4716C65.6096 56.4716 65.3887 56.2506 65.3887 56.0297V53.4664C65.3887 53.2454 65.6096 53.0244 65.8306 53.0244C66.0516 53.0244 66.2726 53.2454 66.2726 53.4664V56.0297C66.3831 56.2506 66.1621 56.4716 65.8306 56.4716Z" fill="#8364B1"/>
<path d="M70.8574 57.8088C70.7469 57.8088 70.6364 57.8088 70.6364 57.6983C70.4154 57.5878 70.3049 57.2564 70.4154 57.0243L71.6418 54.7925C71.7523 54.682 71.8628 54.5715 72.0838 54.5715C72.3047 54.5715 72.5257 54.7925 72.5257 55.0135C72.5257 55.124 72.5257 55.2345 72.4152 55.2345L71.0783 57.4663C71.1888 57.6873 70.9678 57.7978 70.8574 57.7978V57.8088Z" fill="#8364B1"/>
<path d="M74.426 61.4879C74.205 61.4879 74.0945 61.3774 73.984 61.2669C73.8736 61.0459 73.8736 60.7145 74.205 60.5929L76.4369 59.256C76.6578 59.1455 76.9893 59.1455 77.1108 59.477C77.2213 59.698 77.2213 60.0294 76.8899 60.151L74.658 61.4879C74.658 61.3774 74.5475 61.4879 74.437 61.4879H74.426Z" fill="#8364B1"/>
<path d="M78.3265 66.3934H75.7632C75.5423 66.3934 75.3213 66.1724 75.3213 65.9515C75.3213 65.7305 75.5423 65.5095 75.7632 65.5095H78.3265C78.5475 65.5095 78.7685 65.7305 78.7685 65.9515C78.7685 66.1724 78.658 66.3934 78.3265 66.3934Z" fill="#8364B1"/>
<path d="M76.6458 72.6359C76.5354 72.6359 76.4249 72.6359 76.4249 72.5254L74.193 71.1885C73.9721 71.078 73.8616 70.7466 73.9721 70.5146C74.0825 70.2936 74.414 70.1831 74.646 70.2936L76.8779 71.6305C77.0988 71.741 77.2093 72.0724 77.0988 72.3045C76.9884 72.5254 76.8779 72.6359 76.6569 72.6359H76.6458Z" fill="#8364B1"/>
<path d="M72.0832 77.2102C71.8622 77.2102 71.7517 77.0997 71.6413 76.9892L70.3044 74.7574C70.1939 74.5364 70.1939 74.2049 70.5253 74.0834C70.7463 73.9729 71.0778 73.9729 71.1993 74.3044L72.5362 76.5362C72.6467 76.7572 72.6467 77.0887 72.3152 77.2102H72.0943H72.0832Z" fill="#8364B1"/>
<path d="M65.8306 78.8786C65.6096 78.8786 65.3887 78.6576 65.3887 78.4366V75.8733C65.3887 75.6524 65.6096 75.4314 65.8306 75.4314C66.0516 75.4314 66.2726 75.6524 66.2726 75.8733V78.4366C66.3831 78.6576 66.1621 78.8786 65.8306 78.8786Z" fill="#8364B1"/>
<path d="M59.5878 77.2103C59.4773 77.2103 59.3669 77.2103 59.3669 77.0998C59.1459 76.9893 59.0354 76.6579 59.1459 76.4258L60.3723 74.194C60.4828 73.973 60.8142 73.8625 61.0463 73.973C61.2672 74.0835 61.3777 74.415 61.2672 74.647L60.0408 76.8788C59.9303 77.0998 59.8199 77.2103 59.5989 77.2103H59.5878Z" fill="#8364B1"/>
<path d="M55.0138 72.6361C54.9033 72.6361 54.7928 72.6361 54.6823 72.5256C54.4614 72.3046 54.4614 71.9731 54.6823 71.8516L54.7928 71.7411L57.0247 70.4042C57.2456 70.2937 57.5771 70.2937 57.6986 70.6252C57.8091 70.8462 57.8091 71.1776 57.4777 71.2992L55.2458 72.5256C55.2458 72.6361 55.1353 72.6361 55.0248 72.6361H55.0138Z" fill="#8364B1"/>
<path d="M55.9086 66.3934H53.3453C53.1243 66.3934 52.9033 66.1724 52.9033 65.9515C52.9033 65.7305 53.1243 65.5095 53.3453 65.5095H55.9086C56.1295 65.5095 56.3505 65.7305 56.3505 65.9515C56.3505 66.1724 56.24 66.3934 55.9086 66.3934Z" fill="#8364B1"/>
<path d="M57.2455 61.488C57.135 61.488 57.0245 61.488 57.0245 61.3775L54.7926 60.0406C54.5717 59.9301 54.4612 59.5986 54.5717 59.3666C54.6822 59.1456 55.0136 59.0352 55.2456 59.1456L57.4775 60.4825C57.6984 60.593 57.8089 60.9245 57.6984 61.1565C57.588 61.3775 57.4775 61.488 57.2565 61.488H57.2455Z" fill="#8364B1"/>
<path d="M60.9256 57.8088C60.7046 57.8088 60.5941 57.6983 60.4836 57.5878L59.2572 55.356C59.1467 55.135 59.2572 54.8036 59.4782 54.682C59.6992 54.5715 60.0306 54.682 60.1522 54.903L61.3786 57.1348C61.4891 57.3558 61.3786 57.6873 61.1576 57.8088H60.9366H60.9256Z" fill="#8364B1"/>
<path d="M62.9355 67.6203C62.7145 67.6203 62.604 67.5098 62.4935 67.2888C62.3831 67.0678 62.4935 66.7364 62.7145 66.6148L66.5042 64.8249L67.5097 61.5877C67.6201 61.3667 67.8411 61.1457 68.1836 61.2562C68.4046 61.3667 68.6256 61.5877 68.5151 61.9302L67.5097 65.3884C67.5097 65.4989 67.3992 65.6094 67.2887 65.7199L63.278 67.6203C63.057 67.5098 62.9465 67.6203 62.9465 67.6203H62.9355Z" fill="#8364B1"/>
<path d="M65.8289 80.9999C57.4651 80.9999 50.7695 74.1939 50.7695 65.9405C50.7695 57.6871 57.5755 50.8811 65.8289 50.8811C74.0823 50.8811 80.8883 57.6871 80.8883 65.9405C80.9988 74.1939 74.1928 80.9999 65.8289 80.9999ZM65.8289 51.7871C58.0175 51.7871 51.775 58.1401 51.775 65.8411C51.775 73.542 58.128 79.895 65.8289 79.895C73.5299 79.895 79.8829 73.542 79.8829 65.8411C79.9934 58.1512 73.6404 51.7871 65.8289 51.7871Z" fill="#8364B1"/>
<path d="M35.0603 78.8787C27.9228 78.8787 22.0117 73.0781 22.0117 65.9406C22.0117 61.3665 24.4645 57.0133 28.4752 54.682C30.4861 53.5661 32.7179 52.8921 34.9387 52.8921C37.1595 52.8921 39.5129 53.4445 41.4022 54.682C45.4129 57.0243 47.8657 61.267 47.8657 65.9406C47.9762 73.0781 42.1756 78.8787 35.0382 78.8787H35.0603ZM35.0603 53.8975C32.9389 53.8975 30.9391 54.45 29.0387 55.4554C25.3595 57.5767 23.0172 61.5874 23.0172 65.8301C23.0172 72.4152 28.3647 77.7627 34.9498 77.7627C41.5348 77.7627 46.8824 72.4152 46.8824 65.8301C46.8824 61.5985 44.54 57.5767 40.8608 55.4554C39.1925 54.45 37.1816 53.8975 35.0603 53.8975Z" fill="#8364B1"/>
<path d="M35.0601 56.4716C34.8391 56.4716 34.6182 56.2506 34.6182 56.0297V53.4664C34.6182 53.2454 34.8391 53.0244 35.0601 53.0244C35.2811 53.0244 35.5021 53.2454 35.5021 53.4664V56.0297C35.5021 56.2506 35.2811 56.4716 35.0601 56.4716Z" fill="#8364B1"/>
<path d="M39.9658 57.8089C39.8553 57.8089 39.7448 57.8089 39.7448 57.6984C39.5238 57.5879 39.4133 57.2564 39.5238 57.0244L40.8607 54.7926C40.8607 54.7926 40.8607 54.6821 40.9712 54.6821C41.1922 54.4611 41.5236 54.4611 41.6452 54.6821C41.8661 54.7926 41.8661 55.124 41.7557 55.3561L40.5292 57.5879C40.3083 57.6984 40.1978 57.8089 39.9768 57.8089H39.9658Z" fill="#8364B1"/>
<path d="M43.6447 61.4879C43.4238 61.4879 43.3133 61.3774 43.2028 61.2669C43.0923 61.0459 43.0923 60.7145 43.4238 60.5929L45.6556 59.256C45.8766 59.1455 46.208 59.1455 46.3296 59.477C46.4401 59.698 46.4401 60.0294 46.1086 60.151L43.8768 61.4879C43.7663 61.3774 43.7663 61.4879 43.6558 61.4879H43.6447Z" fill="#8364B1"/>
<path d="M47.5443 66.3934H44.981C44.76 66.3934 44.5391 66.1724 44.5391 65.9515C44.5391 65.7305 44.76 65.5095 44.981 65.5095H47.5443C47.7653 65.5095 47.9863 65.7305 47.9863 65.9515C47.9863 66.1724 47.7653 66.3934 47.5443 66.3934Z" fill="#8364B1"/>
<path d="M45.8763 72.6359C45.7658 72.6359 45.6553 72.6359 45.6553 72.5254L43.4235 71.1885C43.2025 71.078 43.092 70.7466 43.2025 70.5146C43.313 70.2936 43.6445 70.1831 43.8765 70.2936L46.1083 71.6305C46.3293 71.741 46.4398 72.0724 46.3293 72.3045C46.2188 72.5254 45.9978 72.6359 45.8874 72.6359H45.8763Z" fill="#8364B1"/>
<path d="M41.302 77.2102C41.081 77.2102 40.9705 77.0997 40.86 76.9892L39.5231 74.7574C39.4126 74.5364 39.4126 74.2049 39.7441 74.0834C39.9651 73.9729 40.2965 73.9729 40.4181 74.3044L41.755 76.5362C41.8654 76.7572 41.8654 77.0887 41.534 77.2102H41.313H41.302Z" fill="#8364B1"/>
<path d="M35.0601 78.8786C34.8391 78.8786 34.6182 78.6576 34.6182 78.4366V75.8733C34.6182 75.6524 34.8391 75.4314 35.0601 75.4314C35.2811 75.4314 35.5021 75.6524 35.5021 75.8733V78.4366C35.5021 78.6576 35.2811 78.8786 35.0601 78.8786Z" fill="#8364B1"/>
<path d="M28.8066 77.2103C28.6961 77.2103 28.5856 77.2103 28.5856 77.0998C28.3646 76.9893 28.2541 76.6579 28.3646 76.4258L29.7015 74.194C29.812 73.973 30.1435 73.8625 30.3755 73.973C30.5965 74.0835 30.707 74.415 30.5965 74.647L29.2596 76.8788C29.1491 77.0998 28.9281 77.2103 28.8176 77.2103H28.8066Z" fill="#8364B1"/>
<path d="M24.2424 72.6361C24.0214 72.6361 23.9109 72.5256 23.8005 72.4151C23.69 72.1941 23.69 71.8626 24.0214 71.7411L26.2533 70.4042C26.4742 70.2937 26.8057 70.2937 26.9272 70.6252C27.0377 70.8462 27.0377 71.1776 26.7063 71.2992L24.4744 72.6361H24.2535H24.2424Z" fill="#8364B1"/>
<path d="M25.1263 66.3934H22.563C22.3421 66.3934 22.1211 66.1724 22.1211 65.9515C22.1211 65.7305 22.3421 65.5095 22.563 65.5095H25.1263C25.3473 65.5095 25.5683 65.7305 25.5683 65.9515C25.5683 66.1724 25.3473 66.3934 25.1263 66.3934Z" fill="#8364B1"/>
<path d="M26.4632 61.488C26.3527 61.488 26.2423 61.488 26.2423 61.3775L24.0104 60.0406C23.7894 59.9301 23.679 59.5986 23.7894 59.3666C23.8999 59.1456 24.2314 59.0352 24.4634 59.1456L26.6953 60.4825C26.9162 60.593 27.0267 60.9245 26.9162 61.1565C26.8057 61.3775 26.5848 61.488 26.4743 61.488H26.4632Z" fill="#8364B1"/>
<path d="M30.0319 57.8089C29.811 57.8089 29.7005 57.6984 29.59 57.5879L28.3636 55.3561C28.2531 55.1351 28.2531 54.9141 28.4741 54.6821C28.6951 54.4611 29.0265 54.4611 29.148 54.6821C29.148 54.6821 29.148 54.7926 29.2585 54.7926L30.5954 57.0244C30.7059 57.2454 30.7059 57.5769 30.3745 57.6984C30.264 57.8089 30.1535 57.8089 30.043 57.8089H30.0319Z" fill="#8364B1"/>
<path d="M36.3964 68.1724C36.2859 68.1724 36.1754 68.1724 36.1754 68.0619L33.5017 66.272C33.3912 66.1615 33.2807 66.051 33.2807 65.8301L32.9492 60.593C32.9492 60.372 33.1702 60.0405 33.3912 60.0405C33.6121 60.0405 33.9436 60.2615 33.9436 60.4825L34.1646 65.4986L36.6174 67.1669C36.8384 67.2774 36.9489 67.6089 36.7279 67.8409C36.7279 68.1724 36.6174 68.1724 36.3964 68.1724Z" fill="#8364B1"/>
<path d="M35.0594 80.9999C26.6955 80.9999 20 74.1939 20 65.9405C20 57.6871 26.806 50.8811 35.0594 50.8811C43.3128 50.8811 50.1188 57.6871 50.1188 65.9405C50.1188 74.1939 43.3128 80.9999 35.0594 80.9999ZM35.0594 51.7871C27.248 51.7871 21.0054 58.1401 21.0054 65.8411C21.0054 73.542 27.3584 79.895 35.0594 79.895C42.7604 79.895 49.1134 73.542 49.1134 65.8411C49.1134 58.1401 42.7604 51.7871 35.0594 51.7871Z" fill="#8364B1"/>
</svg>
